<svg width="250" height="200" viewBox="0 0 250 200" fill="none" xmlns="http://www.w3.org/2000/svg">
<g clip-path="url(#clip0_462_9873)">
<path d="M0 16C0 7.16347 7.16344 0 16 0H233.997C242.834 0 249.997 7.16344 249.997 16V183.998C249.997 192.834 242.834 199.998 233.997 199.998H16C7.16345 199.998 0 192.834 0 183.998V16Z" fill="#E5E7EB"/>
<rect width="249.997" height="199.998" fill="url(#paint0_linear_462_9873)"/>
<g opacity="0.557261">
<rect width="249.997" height="2.99418" transform="translate(0 98.4963)" fill="#074D31"/>
<rect width="250" height="3" transform="translate(22.6499 98.4934)" fill="url(#paint1_linear_462_9873)"/>
</g>
<g opacity="0.643153">
<path d="M119.492 109.325C119.254 108.402 118.773 107.56 118.1 106.886C117.426 106.213 116.584 105.732 115.661 105.494L99.3034 101.276C99.0243 101.196 98.7787 101.028 98.6038 100.797C98.4289 100.565 98.3342 100.283 98.3342 99.9931C98.3342 99.703 98.4289 99.4208 98.6038 99.1893C98.7787 98.9579 99.0243 98.7898 99.3034 98.7106L115.661 94.4899C116.583 94.2521 117.425 93.7715 118.099 93.0982C118.773 92.4249 119.254 91.5833 119.492 90.6611L123.711 74.3034C123.789 74.0233 123.957 73.7764 124.189 73.6006C124.42 73.4248 124.703 73.3296 124.994 73.3296C125.285 73.3296 125.568 73.4248 125.8 73.6006C126.032 73.7764 126.2 74.0233 126.278 74.3034L130.494 90.6611C130.732 91.5838 131.213 92.4259 131.886 93.0997C132.56 93.7736 133.402 94.2545 134.325 94.4925L150.683 98.7079C150.964 98.7855 151.212 98.9533 151.389 99.1854C151.566 99.4176 151.661 99.7013 151.661 99.9931C151.661 100.285 151.566 100.569 151.389 100.801C151.212 101.033 150.964 101.201 150.683 101.278L134.325 105.494C133.402 105.732 132.56 106.213 131.886 106.886C131.213 107.56 130.732 108.402 130.494 109.325L126.275 125.683C126.197 125.963 126.029 126.21 125.797 126.386C125.566 126.561 125.283 126.657 124.992 126.657C124.701 126.657 124.418 126.561 124.186 126.386C123.954 126.21 123.786 125.963 123.708 125.683L119.492 109.325Z" stroke="#074D31" stroke-width="5.33257" stroke-linecap="round" stroke-linejoin="round"/>
<path d="M146.323 75.9966V86.6617" stroke="#074D31" stroke-width="5.33257" stroke-linecap="round" stroke-linejoin="round"/>
<path d="M151.656 81.3291H140.991" stroke="#074D31" stroke-width="5.33257" stroke-linecap="round" stroke-linejoin="round"/>
<path d="M103.663 113.325V118.657" stroke="#074D31" stroke-width="5.33257" stroke-linecap="round" stroke-linejoin="round"/>
<path d="M106.329 115.991H100.996" stroke="#074D31" stroke-width="5.33257" stroke-linecap="round" stroke-linejoin="round"/>
</g>
<g opacity="0.643153">
<mask id="path-7-inside-1_462_9873" fill="white">
<path d="M29.9976 47.9929C29.9976 43.5746 33.5793 39.9929 37.9976 39.9929H101.994C106.413 39.9929 109.994 43.5746 109.994 47.9929V91.9878C109.994 96.4061 106.413 99.9878 101.994 99.9878H37.9976C33.5793 99.9878 29.9976 96.4061 29.9976 91.9878V47.9929Z"/>
</mask>
<path d="M37.9976 39.9929V41.4177H101.994V39.9929V38.5682H37.9976V39.9929ZM109.994 47.9929H108.57V91.9878H109.994H111.419V47.9929H109.994ZM101.994 99.9878V98.5631H37.9976V99.9878V101.413H101.994V99.9878ZM29.9976 91.9878H31.4223V47.9929H29.9976H28.5728V91.9878H29.9976ZM37.9976 99.9878V98.5631C34.3661 98.5631 31.4223 95.6192 31.4223 91.9878H29.9976H28.5728C28.5728 97.1929 32.7924 101.413 37.9976 101.413V99.9878ZM109.994 91.9878H108.57C108.57 95.6192 105.626 98.5631 101.994 98.5631V99.9878V101.413C107.2 101.413 111.419 97.1929 111.419 91.9878H109.994ZM101.994 39.9929V41.4177C105.626 41.4177 108.57 44.3615 108.57 47.9929H109.994H111.419C111.419 42.7878 107.2 38.5682 101.994 38.5682V39.9929ZM37.9976 39.9929V38.5682C32.7924 38.5682 28.5728 42.7878 28.5728 47.9929H29.9976H31.4223C31.4223 44.3615 34.3661 41.4177 37.9976 41.4177V39.9929Z" fill="#A0EBAA" mask="url(#path-7-inside-1_462_9873)"/>
<path d="M31.4224 21.4197C31.4224 19.2105 33.2132 17.4197 35.4224 17.4197H63.9981C66.2072 17.4197 67.9981 19.2105 67.9981 21.4197V36.4047C67.9981 38.6139 66.2072 40.4047 63.9981 40.4047H35.4224C33.2132 40.4047 31.4224 38.6139 31.4224 36.4047V21.4197Z" fill="#A0EBAA"/>
<path d="M40.295 32.8403V25.5676H41.1331V28.2523H41.2041C41.2656 28.1576 41.3509 28.0368 41.4598 27.89C41.571 27.7409 41.7296 27.6083 41.9356 27.4923C42.1439 27.3739 42.4257 27.3148 42.7808 27.3148C43.2401 27.3148 43.6449 27.4296 43.9953 27.6592C44.3457 27.8889 44.6191 28.2144 44.8156 28.6358C45.0121 29.0572 45.1103 29.5543 45.1103 30.1273C45.1103 30.7049 45.0121 31.2056 44.8156 31.6294C44.6191 32.0508 44.3468 32.3775 43.9988 32.6095C43.6508 32.8391 43.2495 32.954 42.795 32.954C42.4446 32.954 42.1641 32.896 41.9534 32.78C41.7427 32.6616 41.5805 32.5278 41.4669 32.3787C41.3532 32.2272 41.2656 32.1017 41.2041 32.0023H41.1046V32.8403H40.295ZM41.1189 30.1131C41.1189 30.525 41.1792 30.8884 41.3 31.2033C41.4207 31.5158 41.5971 31.7608 41.8291 31.9383C42.0611 32.1135 42.3452 32.2011 42.6814 32.2011C43.0317 32.2011 43.3241 32.1088 43.5585 31.9241C43.7952 31.7371 43.9728 31.4862 44.0912 31.1713C44.2119 30.8541 44.2723 30.5013 44.2723 30.1131C44.2723 29.7295 44.2131 29.3839 44.0947 29.0761C43.9787 28.766 43.8023 28.521 43.5656 28.341C43.3312 28.1588 43.0365 28.0676 42.6814 28.0676C42.3404 28.0676 42.054 28.154 41.822 28.3268C41.59 28.4973 41.4148 28.7364 41.2964 29.0442C41.178 29.3496 41.1189 29.7059 41.1189 30.1131ZM48.1146 32.9682C47.7689 32.9682 47.4553 32.9031 47.1735 32.7729C46.8918 32.6403 46.6681 32.4497 46.5024 32.2011C46.3367 31.9502 46.2538 31.6472 46.2538 31.292C46.2538 30.9795 46.3153 30.7262 46.4385 30.5321C46.5616 30.3356 46.7261 30.1817 46.9321 30.0704C47.138 29.9592 47.3653 29.8763 47.6139 29.8219C47.8648 29.765 48.117 29.7201 48.3703 29.6869C48.7017 29.6443 48.9704 29.6123 49.1764 29.591C49.3847 29.5674 49.5362 29.5283 49.6309 29.4739C49.728 29.4194 49.7765 29.3247 49.7765 29.1898V29.1614C49.7765 28.811 49.6806 28.5387 49.4889 28.3446C49.2995 28.1505 49.0118 28.0534 48.626 28.0534C48.2259 28.0534 47.9122 28.141 47.6849 28.3162C47.4576 28.4914 47.2978 28.6784 47.2055 28.8773L46.41 28.5932C46.5521 28.2617 46.7415 28.0037 46.9782 27.819C47.2173 27.632 47.4778 27.5018 47.7595 27.4284C48.0436 27.3526 48.3229 27.3148 48.5975 27.3148C48.7727 27.3148 48.974 27.3361 49.2012 27.3787C49.4309 27.4189 49.6522 27.503 49.8653 27.6308C50.0807 27.7587 50.2595 27.9516 50.4015 28.2097C50.5436 28.4677 50.6146 28.8133 50.6146 29.2466V32.8403H49.7765V32.1017H49.7339C49.6771 32.2201 49.5824 32.3467 49.4498 32.4817C49.3172 32.6166 49.1409 32.7314 48.9207 32.8261C48.7005 32.9208 48.4318 32.9682 48.1146 32.9682ZM48.2424 32.2153C48.5739 32.2153 48.8532 32.1502 49.0805 32.02C49.3101 31.8898 49.483 31.7217 49.599 31.5158C49.7173 31.3098 49.7765 31.0932 49.7765 30.8659V30.0989C49.741 30.1415 49.6629 30.1805 49.5421 30.216C49.4238 30.2492 49.2865 30.2788 49.1302 30.3048C48.9763 30.3285 48.826 30.3498 48.6792 30.3687C48.5348 30.3853 48.4176 30.3995 48.3277 30.4114C48.1099 30.4398 47.9063 30.4859 47.7169 30.5498C47.5298 30.6114 47.3783 30.7049 47.2623 30.8304C47.1487 30.9535 47.0919 31.1216 47.0919 31.3347C47.0919 31.6258 47.1996 31.846 47.415 31.9952C47.6328 32.1419 47.9086 32.2153 48.2424 32.2153ZM54.4631 34.9994C54.0583 34.9994 53.7103 34.9473 53.4191 34.8432C53.1279 34.7414 52.8852 34.6064 52.6911 34.4383C52.4994 34.2726 52.3467 34.0951 52.233 33.9057L52.9006 33.4369C52.9764 33.5364 53.0723 33.65 53.1883 33.7778C53.3043 33.908 53.4629 34.0205 53.6641 34.1152C53.8677 34.2123 54.1341 34.2608 54.4631 34.2608C54.9035 34.2608 55.2669 34.1543 55.5533 33.9412C55.8398 33.7281 55.983 33.3943 55.983 32.9398V31.8318H55.912C55.8504 31.9312 55.7629 32.0543 55.6492 32.2011C55.5379 32.3455 55.377 32.4746 55.1663 32.5882C54.9579 32.6995 54.6762 32.7551 54.3211 32.7551C53.8807 32.7551 53.4854 32.6509 53.135 32.4426C52.787 32.2343 52.5112 31.9312 52.3076 31.5335C52.1064 31.1358 52.0057 30.6528 52.0057 30.0847C52.0057 29.5259 52.104 29.0394 52.3005 28.6251C52.497 28.2085 52.7704 27.8865 53.1208 27.6592C53.4712 27.4296 53.876 27.3148 54.3353 27.3148C54.6904 27.3148 54.9721 27.3739 55.1805 27.4923C55.3912 27.6083 55.5522 27.7409 55.6634 27.89C55.7771 28.0368 55.8647 28.1576 55.9262 28.2523H56.0114V27.3858H56.8211V32.9966C56.8211 33.4653 56.7146 33.8465 56.5015 34.14C56.2908 34.436 56.0067 34.6526 55.6492 34.7899C55.2941 34.9296 54.8987 34.9994 54.4631 34.9994ZM54.4347 32.0023C54.7709 32.0023 55.055 31.9253 55.287 31.7714C55.519 31.6176 55.6954 31.3962 55.8161 31.1074C55.9369 30.8186 55.9972 30.4729 55.9972 30.0704C55.9972 29.6775 55.938 29.3306 55.8197 29.03C55.7013 28.7293 55.5261 28.4937 55.2941 28.3233C55.0621 28.1528 54.7756 28.0676 54.4347 28.0676C54.0796 28.0676 53.7837 28.1576 53.5469 28.3375C53.3126 28.5174 53.1362 28.7589 53.0178 29.0619C52.9018 29.365 52.8438 29.7011 52.8438 30.0704C52.8438 30.4492 52.903 30.7842 53.0214 31.0754C53.1421 31.3642 53.3197 31.5915 53.554 31.7572C53.7908 31.9206 54.0843 32.0023 54.4347 32.0023Z" fill="white"/>
</g>
<g opacity="0.643153">
<mask id="path-11-inside-2_462_9873" fill="white">
<path d="M160.005 67.9949C160.005 63.5766 163.587 59.9949 168.005 59.9949H202.004C206.423 59.9949 210.004 63.5766 210.004 67.9949V91.9878C210.004 96.406 206.423 99.9877 202.004 99.9877H168.005C163.587 99.9877 160.005 96.406 160.005 91.9877V67.9949Z"/>
</mask>
<path d="M168.005 59.9949V61.4196H202.004V59.9949V58.5701H168.005V59.9949ZM210.004 67.9949H208.58V91.9878H210.004H211.429V67.9949H210.004ZM202.004 99.9877V98.563H168.005V99.9877V101.412H202.004V99.9877ZM160.005 91.9877H161.43V67.9949H160.005H158.58V91.9877H160.005ZM168.005 99.9877V98.563C164.373 98.563 161.43 95.6192 161.43 91.9877H160.005H158.58C158.58 97.1929 162.8 101.412 168.005 101.412V99.9877ZM210.004 91.9878H208.58C208.58 95.6192 205.636 98.563 202.004 98.563V99.9877V101.412C207.209 101.412 211.429 97.1929 211.429 91.9878H210.004ZM202.004 59.9949V61.4196C205.636 61.4196 208.58 64.3635 208.58 67.9949H210.004H211.429C211.429 62.7897 207.209 58.5701 202.004 58.5701V59.9949ZM168.005 59.9949V58.5701C162.8 58.5701 158.58 62.7897 158.58 67.9949H160.005H161.43C161.43 64.3635 164.373 61.4196 168.005 61.4196V59.9949Z" fill="#EBA0A1" mask="url(#path-11-inside-2_462_9873)"/>
<path d="M161.43 41.4216C161.43 39.2125 163.221 37.4216 165.43 37.4216H216.43C218.639 37.4216 220.43 39.2125 220.43 41.4216V56.4216C220.43 58.6308 218.639 60.4216 216.43 60.4216H165.43C163.221 60.4216 161.43 58.6308 161.43 56.4216V41.4216Z" fill="#EBA0A1"/>
<path d="M170.189 54.8877V47.3877H170.998V48.2542H171.098C171.159 48.1595 171.245 48.0388 171.353 47.892C171.465 47.7429 171.623 47.6103 171.829 47.4943C172.038 47.3759 172.319 47.3167 172.674 47.3167C173.134 47.3167 173.539 47.4315 173.889 47.6612C174.239 47.8908 174.513 48.2163 174.709 48.6377C174.906 49.0591 175.004 49.5563 175.004 50.1292C175.004 50.7069 174.906 51.2076 174.709 51.6313C174.513 52.0527 174.241 52.3795 173.893 52.6115C173.545 52.8411 173.143 52.9559 172.689 52.9559C172.338 52.9559 172.058 52.8979 171.847 52.7819C171.636 52.6635 171.474 52.5298 171.361 52.3806C171.247 52.2291 171.159 52.1036 171.098 52.0042H171.027V54.8877H170.189ZM171.013 50.115C171.013 50.5269 171.073 50.8903 171.194 51.2052C171.314 51.5177 171.491 51.7627 171.723 51.9403C171.955 52.1155 172.239 52.2031 172.575 52.2031C172.925 52.2031 173.218 52.1108 173.452 51.9261C173.689 51.7391 173.866 51.4881 173.985 51.1733C174.106 50.856 174.166 50.5033 174.166 50.115C174.166 49.7315 174.107 49.3858 173.988 49.0781C173.872 48.7679 173.696 48.5229 173.459 48.343C173.225 48.1607 172.93 48.0696 172.575 48.0696C172.234 48.0696 171.948 48.156 171.716 48.3288C171.484 48.4992 171.308 48.7384 171.19 49.0461C171.072 49.3515 171.013 49.7078 171.013 50.115ZM178.005 52.9701C177.659 52.9701 177.345 52.905 177.064 52.7748C176.782 52.6422 176.558 52.4517 176.393 52.2031C176.227 51.9521 176.144 51.6491 176.144 51.294C176.144 50.9815 176.205 50.7282 176.329 50.534C176.452 50.3376 176.616 50.1837 176.822 50.0724C177.028 49.9611 177.255 49.8783 177.504 49.8238C177.755 49.767 178.007 49.722 178.26 49.6889C178.592 49.6463 178.861 49.6143 179.067 49.593C179.275 49.5693 179.426 49.5303 179.521 49.4758C179.618 49.4214 179.667 49.3267 179.667 49.1917V49.1633C179.667 48.8129 179.571 48.5407 179.379 48.3465C179.19 48.1524 178.902 48.0554 178.516 48.0554C178.116 48.0554 177.802 48.1429 177.575 48.3181C177.348 48.4933 177.188 48.6804 177.096 48.8792L176.3 48.5951C176.442 48.2637 176.632 48.0056 176.868 47.821C177.107 47.634 177.368 47.5037 177.65 47.4304C177.934 47.3546 178.213 47.3167 178.488 47.3167C178.663 47.3167 178.864 47.338 179.091 47.3806C179.321 47.4209 179.542 47.5049 179.755 47.6328C179.971 47.7606 180.15 47.9536 180.292 48.2116C180.434 48.4697 180.505 48.8153 180.505 49.2485V52.8423H179.667V52.1036H179.624C179.567 52.222 179.473 52.3487 179.34 52.4836C179.207 52.6186 179.031 52.7334 178.811 52.8281C178.591 52.9228 178.322 52.9701 178.005 52.9701ZM178.133 52.2173C178.464 52.2173 178.743 52.1522 178.971 52.022C179.2 51.8918 179.373 51.7237 179.489 51.5177C179.607 51.3117 179.667 51.0951 179.667 50.8679V50.1008C179.631 50.1434 179.553 50.1825 179.432 50.218C179.314 50.2511 179.177 50.2807 179.02 50.3068C178.866 50.3304 178.716 50.3518 178.569 50.3707C178.425 50.3873 178.308 50.4015 178.218 50.4133C178 50.4417 177.796 50.4879 177.607 50.5518C177.42 50.6134 177.268 50.7069 177.152 50.8323C177.039 50.9554 176.982 51.1235 176.982 51.3366C176.982 51.6278 177.09 51.848 177.305 51.9971C177.523 52.1439 177.799 52.2173 178.133 52.2173ZM186.015 48.6093L185.262 48.8224C185.215 48.6969 185.145 48.575 185.053 48.4566C184.963 48.3359 184.84 48.2365 184.684 48.1583C184.527 48.0802 184.327 48.0411 184.083 48.0411C183.75 48.0411 183.471 48.1181 183.249 48.272C183.029 48.4235 182.919 48.6164 182.919 48.8508C182.919 49.0591 182.994 49.2237 183.146 49.3444C183.297 49.4652 183.534 49.5658 183.856 49.6463L184.666 49.8451C185.153 49.9635 185.517 50.1446 185.756 50.3884C185.995 50.6299 186.115 50.9412 186.115 51.3224C186.115 51.6349 186.025 51.9143 185.845 52.1605C185.667 52.4067 185.419 52.6008 185.099 52.7429C184.779 52.8849 184.408 52.9559 183.984 52.9559C183.428 52.9559 182.967 52.8352 182.603 52.5937C182.238 52.3522 182.007 51.9995 181.91 51.5355L182.706 51.3366C182.781 51.6302 182.925 51.8503 183.135 51.9971C183.348 52.1439 183.626 52.2173 183.97 52.2173C184.36 52.2173 184.671 52.1344 184.9 51.9687C185.132 51.8006 185.248 51.5994 185.248 51.365C185.248 51.1756 185.182 51.017 185.049 50.8892C184.917 50.759 184.713 50.6619 184.438 50.598L183.529 50.3849C183.03 50.2665 182.663 50.0831 182.429 49.8345C182.197 49.5835 182.081 49.2698 182.081 48.8934C182.081 48.5857 182.167 48.3134 182.34 48.0767C182.515 47.8399 182.753 47.6541 183.054 47.5191C183.357 47.3842 183.7 47.3167 184.083 47.3167C184.623 47.3167 185.047 47.4351 185.355 47.6718C185.665 47.9086 185.885 48.2211 186.015 48.6093ZM191.357 48.6093L190.604 48.8224C190.557 48.6969 190.487 48.575 190.395 48.4566C190.305 48.3359 190.182 48.2365 190.025 48.1583C189.869 48.0802 189.669 48.0411 189.425 48.0411C189.091 48.0411 188.813 48.1181 188.591 48.272C188.37 48.4235 188.26 48.6164 188.26 48.8508C188.26 49.0591 188.336 49.2237 188.488 49.3444C188.639 49.4652 188.876 49.5658 189.198 49.6463L190.008 49.8451C190.495 49.9635 190.859 50.1446 191.098 50.3884C191.337 50.6299 191.456 50.9412 191.456 51.3224C191.456 51.6349 191.366 51.9143 191.187 52.1605C191.009 52.4067 190.76 52.6008 190.441 52.7429C190.121 52.8849 189.75 52.9559 189.326 52.9559C188.769 52.9559 188.309 52.8352 187.944 52.5937C187.58 52.3522 187.349 51.9995 187.252 51.5355L188.047 51.3366C188.123 51.6302 188.266 51.8503 188.477 51.9971C188.69 52.1439 188.968 52.2173 189.312 52.2173C189.702 52.2173 190.012 52.1344 190.242 51.9687C190.474 51.8006 190.59 51.5994 190.59 51.365C190.59 51.1756 190.524 51.017 190.391 50.8892C190.259 50.759 190.055 50.6619 189.78 50.598L188.871 50.3849C188.372 50.2665 188.005 50.0831 187.77 49.8345C187.538 49.5835 187.422 49.2698 187.422 48.8934C187.422 48.5857 187.509 48.3134 187.682 48.0767C187.857 47.8399 188.095 47.6541 188.395 47.5191C188.698 47.3842 189.042 47.3167 189.425 47.3167C189.965 47.3167 190.389 47.4351 190.696 47.6718C191.007 47.9086 191.227 48.2211 191.357 48.6093ZM192.835 54.8877V47.3877H193.645V48.2542H193.744C193.806 48.1595 193.891 48.0388 194 47.892C194.111 47.7429 194.27 47.6103 194.476 47.4943C194.684 47.3759 194.966 47.3167 195.321 47.3167C195.78 47.3167 196.185 47.4315 196.535 47.6612C196.886 47.8908 197.159 48.2163 197.356 48.6377C197.552 49.0591 197.651 49.5563 197.651 50.1292C197.651 50.7069 197.552 51.2076 197.356 51.6313C197.159 52.0527 196.887 52.3795 196.539 52.6115C196.191 52.8411 195.79 52.9559 195.335 52.9559C194.985 52.9559 194.704 52.8979 194.494 52.7819C194.283 52.6635 194.121 52.5298 194.007 52.3806C193.893 52.2291 193.806 52.1036 193.744 52.0042H193.673V54.8877H192.835ZM193.659 50.115C193.659 50.5269 193.719 50.8903 193.84 51.2052C193.961 51.5177 194.137 51.7627 194.369 51.9403C194.601 52.1155 194.885 52.2031 195.222 52.2031C195.572 52.2031 195.864 52.1108 196.099 51.9261C196.335 51.7391 196.513 51.4881 196.631 51.1733C196.752 50.856 196.812 50.5033 196.812 50.115C196.812 49.7315 196.753 49.3858 196.635 49.0781C196.519 48.7679 196.342 48.5229 196.106 48.343C195.871 48.1607 195.577 48.0696 195.222 48.0696C194.881 48.0696 194.594 48.156 194.362 48.3288C194.13 48.4992 193.955 48.7384 193.837 49.0461C193.718 49.3515 193.659 49.7078 193.659 50.115ZM201.262 52.9559C200.77 52.9559 200.338 52.8387 199.966 52.6044C199.597 52.37 199.308 52.0421 199.099 51.6207C198.893 51.1993 198.79 50.7069 198.79 50.1434C198.79 49.5752 198.893 49.0793 199.099 48.6555C199.308 48.2317 199.597 47.9027 199.966 47.6683C200.338 47.4339 200.77 47.3167 201.262 47.3167C201.754 47.3167 202.185 47.4339 202.555 47.6683C202.926 47.9027 203.215 48.2317 203.421 48.6555C203.629 49.0793 203.734 49.5752 203.734 50.1434C203.734 50.7069 203.629 51.1993 203.421 51.6207C203.215 52.0421 202.926 52.37 202.555 52.6044C202.185 52.8387 201.754 52.9559 201.262 52.9559ZM201.262 52.2031C201.636 52.2031 201.944 52.1072 202.185 51.9154C202.427 51.7237 202.606 51.4715 202.722 51.159C202.838 50.8465 202.896 50.508 202.896 50.1434C202.896 49.7788 202.838 49.4391 202.722 49.1242C202.606 48.8094 202.427 48.5549 202.185 48.3608C201.944 48.1666 201.636 48.0696 201.262 48.0696C200.888 48.0696 200.58 48.1666 200.339 48.3608C200.097 48.5549 199.918 48.8094 199.802 49.1242C199.686 49.4391 199.628 49.7788 199.628 50.1434C199.628 50.508 199.686 50.8465 199.802 51.159C199.918 51.4715 200.097 51.7237 200.339 51.9154C200.58 52.1072 200.888 52.2031 201.262 52.2031ZM205.13 52.8423V47.3877H205.94V48.2116H205.997C206.096 47.9417 206.276 47.7227 206.536 47.5546C206.797 47.3866 207.09 47.3025 207.417 47.3025C207.479 47.3025 207.556 47.3037 207.648 47.3061C207.74 47.3084 207.81 47.312 207.857 47.3167V48.169C207.829 48.1619 207.764 48.1512 207.662 48.137C207.563 48.1205 207.457 48.1122 207.346 48.1122C207.081 48.1122 206.844 48.1678 206.636 48.2791C206.43 48.388 206.266 48.5395 206.146 48.7336C206.027 48.9254 205.968 49.1444 205.968 49.3906V52.8423H205.13ZM211.682 47.3877V48.098H208.855V47.3877H211.682ZM209.679 46.0809H210.517V51.2798C210.517 51.5165 210.551 51.6941 210.62 51.8125C210.691 51.9285 210.781 52.0066 210.89 52.0468C211.001 52.0847 211.118 52.1036 211.242 52.1036C211.334 52.1036 211.41 52.0989 211.469 52.0894C211.528 52.0776 211.575 52.0681 211.611 52.061L211.781 52.8139C211.725 52.8352 211.645 52.8565 211.543 52.8778C211.442 52.9015 211.313 52.9133 211.156 52.9133C210.92 52.9133 210.688 52.8624 210.46 52.7606C210.235 52.6588 210.048 52.5037 209.899 52.2954C209.752 52.0871 209.679 51.8243 209.679 51.5071V46.0809Z" fill="white"/>
</g>
</g>
<defs>
<linearGradient id="paint0_linear_462_9873" x1="0" y1="0" x2="195.12" y2="243.9" gradientUnits="userSpaceOnUse">
<stop stop-color="#D1D5DC"/>
<stop offset="1" stop-color="#99A1AF"/>
</linearGradient>
<linearGradient id="paint1_linear_462_9873" x1="0" y1="1.5" x2="250" y2="1.5" gradientUnits="userSpaceOnUse">
<stop stop-opacity="0"/>
<stop offset="0.0714286" stop-color="#0A0A0A" stop-opacity="0.142857"/>
<stop offset="0.142857" stop-color="#2A2A2A" stop-opacity="0.285714"/>
<stop offset="0.214286" stop-color="#4F4F4F" stop-opacity="0.428571"/>
<stop offset="0.285714" stop-color="#787878" stop-opacity="0.571429"/>
<stop offset="0.357143" stop-color="#A3A3A3" stop-opacity="0.714286"/>
<stop offset="0.428571" stop-color="#D0D0D0" stop-opacity="0.857143"/>
<stop offset="0.5" stop-color="white"/>
<stop offset="0.571429" stop-color="#D0D0D0" stop-opacity="0.857143"/>
<stop offset="0.642857" stop-color="#A3A3A3" stop-opacity="0.714286"/>
<stop offset="0.714286" stop-color="#787878" stop-opacity="0.571429"/>
<stop offset="0.785714" stop-color="#4F4F4F" stop-opacity="0.428571"/>
<stop offset="0.857143" stop-color="#2A2A2A" stop-opacity="0.285714"/>
<stop offset="0.928571" stop-color="#0A0A0A" stop-opacity="0.142857"/>
<stop offset="1" stop-opacity="0"/>
</linearGradient>
<clipPath id="clip0_462_9873">
<path d="M0 16C0 7.16347 7.16344 0 16 0H233.997C242.834 0 249.997 7.16344 249.997 16V183.998C249.997 192.834 242.834 199.998 233.997 199.998H16C7.16345 199.998 0 192.834 0 183.998V16Z" fill="white"/>
</clipPath>
</defs>
</svg>
