<svg width="257" height="227" viewBox="0 0 257 227" fill="none" xmlns="http://www.w3.org/2000/svg">
<path d="M31.6563 58.6135C20.2066 55.1648 13.5271 47.2761 11.0976 35.7856C10.9203 34.9472 10.1872 33.036 11.3397 32.7127C12.0827 33.1001 13.3793 34.3363 14.1714 34.9656C17.7763 38.2324 25.5995 38.6673 28.1459 33.8678C30.3039 29.8007 29.4407 21.8081 30.2703 17.0624C30.8166 13.8694 32.1137 10.8513 34.0552 8.25695C42.4616 -3.05775 61.7732 -0.474041 73.7112 2.78243C78.0394 3.96305 82.7933 5.74268 83.3197 10.8389C83.8061 15.5487 81.844 20.4765 78.9908 24.1658C78.937 26.7101 78.8986 28.86 78.5182 31.3864C78.1842 33.6049 77.5858 36.0005 77.3692 38.2054C80.046 42.5369 82.9644 43.1799 76.6713 46.6647C75.4569 49.8201 73.3034 56.5078 70.4047 58.1491C66.5423 60.3361 61.8776 57.7925 59.7782 54.3908C58.2153 56.824 56.8416 59.6868 55.2014 62.2564C59.0828 63.9537 60.9575 66.2071 62.5189 70.0621C62.8896 70.9773 63.3659 71.703 63.5706 72.7152C68.0471 75.2383 70.6266 77.4692 73.8674 81.4866C78.9185 79.4017 82.5022 77.0119 86.8367 73.7188C87.71 73.0554 88.6622 72.6675 89.5425 72.0351C90.7959 71.1348 91.8653 69.8072 92.9021 68.7251C94.5527 67.0023 96.1785 63.539 98.0184 62.2531C100.87 60.2603 105.469 58.7049 108.759 57.4352C111.612 52.2165 115.468 47.0988 118.5 41.9478C119.43 40.3666 120.99 38.811 122.82 38.4266C123.586 38.2658 124.341 38.1685 125.113 38.4049C128.631 39.6694 132.006 41.3791 135.444 42.8471C138.73 44.3103 142.113 45.7189 145.252 47.4635C146.48 48.2067 147.505 50.3737 146.739 51.7015C143.177 57.8799 139.076 64.3145 135.089 70.2088C138.936 76.7743 134.286 80.3762 131.355 86.001C130.002 88.6602 128.75 91.3689 127.599 94.1216C127.181 95.103 126.807 96.1401 126.379 97.0998C125.104 99.9595 123.132 102.043 123.153 105.327C123.168 107.707 122.703 110.509 122.308 112.866C122.154 113.564 121.949 114.665 121.764 115.321C118.749 126.354 114.38 136.932 107.412 146.104C105.644 148.431 102.34 152.39 99.3145 152.487C94.2391 152.65 86.9064 147.458 83.1623 144.296C83.8193 146.753 89.9744 169.973 89.821 171.189C89.6636 172.437 87.7681 173.517 86.8033 174.109C87.4558 176.122 88.4736 183.061 88.8451 185.485C90.7742 198.077 92.4864 211.702 93.0661 224.443C131.208 221.693 179.564 203.878 212.647 184.977C217.229 182.363 221.73 179.609 226.142 176.718C227.862 175.589 229.657 174.455 231.305 173.231C231.694 172.942 232.02 172.626 232.529 172.694C232.89 173.013 232.873 173.006 233.091 173.404C232.671 174.133 229.512 176.084 228.596 176.681C219.755 182.501 210.595 187.824 201.16 192.624C184.548 200.975 167.315 208.031 149.616 213.729C141.162 216.516 132.584 218.912 123.91 220.909C107.117 224.6 90.0022 226.628 72.8117 226.964C53.6279 227.294 35.9724 225.418 17.6147 219.424C14.7605 218.491 0.950926 213.138 0 211.238C0.0385864 210.836 -0.0490277 210.988 0.237833 210.749C1.11279 210.695 2.38048 211.4 3.15852 211.836C6.42192 213.661 9.81537 215.062 13.281 216.447C16.8163 217.844 20.4295 219.036 24.1025 220.017C23.2201 217.695 22.3783 214.951 21.6843 212.562C18.7366 202.414 15.296 190.616 15.8225 179.965C15.8954 178.53 16.0446 177.099 16.2695 175.68C16.5858 173.707 16.9151 173.134 16.4889 171.26C16.4496 171.087 17.3478 167.536 17.4515 167.012C18.229 163.02 18.9765 159.023 19.694 155.02C21.0874 146.994 22.3944 138.966 23.0067 130.771C23.4902 124.299 21.3943 120.094 20.0713 113.86C17.2511 100.574 13.9606 82.4288 19.0005 69.3572C21.2597 63.4973 26.1792 60.7384 31.6563 58.6135Z" fill="#2D2658"/>
<path d="M31.3006 60.1307L31.4413 60.2315C31.4947 60.4005 31.5518 60.5679 31.6127 60.7343C34.1811 67.7188 45.1295 68.3463 51.3966 69.7737C54.2826 70.4022 57.0901 71.348 59.7681 72.5938C55.9459 74.3148 54.7554 77.9228 53.9842 81.7836C52.562 88.9031 53.0583 97.1081 54.8891 104.118C58.5966 118.316 66.2363 131.682 75.0978 143.274C77.1982 145.999 80.786 150.097 83.6447 151.833C84.3128 153.85 85.0742 157.294 85.6208 159.471C86.5704 163.254 87.7689 167.304 88.6056 171.078C84.8265 174.649 75.047 177.816 69.9911 179.545C62.7287 181.963 54.3701 184.511 46.6399 184.478C37.9593 184.441 29.301 180.401 22.3009 175.487C20.8182 174.446 18.9988 173.081 17.7417 171.8C19.7782 162.488 21.4876 153.107 22.8668 143.675C23.6187 138.477 24.5501 132.615 24.3742 127.309C24.2267 122.861 22.2376 117.66 21.2892 113.051C18.6246 100.103 15.4662 82.9385 20.1043 70.1272C22.0571 64.7333 26.4456 62.2205 31.3006 60.1307Z" fill="#FEFEFE"/>
<path d="M60.9301 73.6792C67.3048 73.1847 77.7681 88.5695 81.0769 93.3895C84.4981 98.3405 87.7728 103.391 90.8966 108.535C95.8977 116.735 101.687 125.675 103.703 135.149C103.886 136.007 103.852 137.457 104.748 137.603C105.008 137.471 105.161 137.444 105.247 137.081C105.434 136.295 105.151 135.198 104.997 134.438C104.211 130.545 102.694 126.909 100.919 123.375C100.341 122.223 99.6097 120.983 99.0813 119.834L99.0293 119.718C102.15 111.796 106.693 104.441 114.16 99.984C116.223 100.506 119.93 101.954 121.885 102.793C121.911 106.359 121.582 108.882 120.968 112.345C119.328 121.142 115.037 131.452 110.473 139.111C108.403 142.585 103.643 150.075 99.6873 151.061C96.5731 151.837 90.3674 147.868 87.7114 146.12C83.5743 143.397 79.9198 140.076 76.4192 136.609C66.406 126.691 58.6518 115.838 55.7971 101.815C54.3605 94.805 53.8713 87.3235 55.6864 80.3366C56.443 77.4238 57.6332 74.3539 60.9301 73.6792Z" fill="#FEFEFE"/>
<path d="M17.9023 173.704C18.4653 174.066 20.7796 176.011 21.5875 176.602C24.2785 178.57 26.2885 179.731 29.2177 181.248C43.8778 188.84 56.0955 185.512 70.8984 180.675C71.2476 182.47 71.7843 184.454 72.1939 186.266C72.8431 189.221 73.466 192.181 74.0623 195.146C75.8903 204.213 77.7441 216.278 78.4441 225.537C70.5843 225.837 59.3811 225.895 51.4917 225.054C50.5016 221.546 48.6024 216.451 47.3983 212.884C45.9028 208.53 44.6411 203.87 43.0954 199.571C39.6775 198.168 36.3705 196.348 33.2618 194.377C32.9922 194.207 32.7306 194.303 32.4742 194.401C31.7851 196.086 40.4856 199.799 41.9497 200.465C42.3171 201.337 42.6433 202.29 42.936 203.192C45.2832 210.432 47.4963 217.801 50.1342 224.941C47.5378 224.466 44.0514 224.203 41.2808 223.774C35.9533 222.948 30.6762 221.822 25.4755 220.402C24.7286 217.269 23.1192 212.761 22.1336 209.503C19.1735 199.719 15.4716 183.952 17.9023 173.704Z" fill="#ADABAF"/>
<path d="M51.6604 1.4801C59.1401 0.592434 72.0255 2.86603 78.8028 6.23009C84.591 9.10296 81.5274 17.89 78.9163 22.1726C78.0394 19.8272 77.1924 18.1822 75.5211 16.3344C76.2177 15.1745 78.9931 10.6912 78.3472 9.57318L78.0505 9.50753C77.9237 9.54541 77.7968 9.58329 77.67 9.62117C76.5563 11.4591 75.021 14.5421 73.9258 16.3137C69.8887 22.8425 65.4899 28.2431 59.599 33.1084C56.2296 30.101 52.5688 31.6273 51.2566 35.827C50.5837 37.9809 51.2907 40.0477 52.419 41.9144C51.4929 43.29 50.4336 44.5153 49.3088 45.7288C45.5386 49.6666 40.1257 52.8089 34.8613 54.189C21.818 57.6079 15.0319 46.3879 12.347 35.3874C15.336 37.6155 18.4031 39.1696 22.2189 38.7514C29.7839 37.9221 30.7901 32.0693 30.9865 25.6285C31.1724 19.531 31.4449 13.2681 35.5645 8.40823C39.9 3.29409 45.2821 2.05261 51.6604 1.4801Z" fill="#FEFEFE"/>
<path d="M120.809 47.1809C124.271 48.8176 127.758 50.403 131.268 51.9361C133.245 52.8173 135.609 53.8006 137.509 54.7865C132.846 62.7195 127.373 70.2085 122.521 78.0243C121.239 80.0891 120.196 82.0682 118.615 83.9461C118.478 84.0774 118.295 84.3186 118.105 84.3554C116.93 84.5827 104.363 78.2973 102.365 77.2773C103.033 75.9103 104.392 73.9658 105.24 72.6627L110.589 64.4105C111.551 62.9031 112.235 61.2773 113.163 59.7706C115.75 55.5709 118.332 51.4508 120.809 47.1809Z" fill="#384BA3"/>
<path d="M121.531 51.4089C123.734 52.3892 125.942 53.3577 128.156 54.3148C129.595 54.9406 132.484 56.1455 133.672 57.0124C132.767 58.7617 119.733 79.805 118.915 80.2802L118.852 80.2853C118.395 80.7447 117.864 81.6419 117.491 82.22C115.755 81.5851 113.687 80.5128 112.001 79.6787C110.316 78.8456 108.131 77.8953 106.554 76.9419C106.874 76.2808 107.183 75.6146 107.482 74.9441C107.014 74.6489 107.05 74.7694 106.848 74.3454C107.034 73.5622 120.523 52.5084 121.531 51.4089Z" fill="#2D2658"/>
<path d="M107.482 74.9441C111.279 76.6831 115.132 78.3933 118.852 80.2853C118.395 80.7447 117.864 81.6419 117.491 82.22C115.755 81.5851 113.687 80.5128 112.001 79.6787C110.316 78.8456 108.131 77.8953 106.554 76.9419C106.874 76.2808 107.183 75.6146 107.482 74.9441Z" fill="#FEFEFE"/>
<path d="M112.547 66.9111C115.3 68.4776 120.192 70.5035 123.296 72.0233C121.799 74.3643 120.327 76.7212 118.88 79.0941C117.819 78.4534 116.03 77.6874 114.862 77.1536C112.58 76.1101 110.292 75.0792 107.999 74.0607C109.519 71.6755 110.975 69.2643 112.547 66.9111Z" fill="#FEFEFE"/>
<path d="M117.282 59.5835C117.778 59.8997 120.272 60.9583 120.884 61.2273C123.282 62.2771 125.673 63.343 128.057 64.4249C126.573 66.579 125.247 68.8468 123.93 71.1076C120.487 69.5507 116.53 67.572 113.083 66.173C114.516 63.9979 115.916 61.8013 117.282 59.5835Z" fill="#FEFEFE"/>
<path d="M121.843 52.5193C122.51 52.9448 124.709 53.8918 125.539 54.2655L132.481 57.3821C131.202 59.4388 129.908 61.4854 128.597 63.5213C127.943 63.2794 127.314 62.9715 126.678 62.6862C123.747 61.3712 120.788 60.0949 117.914 58.662L121.843 52.5193Z" fill="#FEFEFE"/>
<path d="M85.6759 174.779L85.8222 174.83C86.0211 175.468 86.134 176.788 86.2543 177.546L87.2257 183.518C89.4426 197.137 90.9542 210.862 91.7547 224.635C87.6338 224.951 83.9662 225.246 79.7891 225.423C79.7242 224.921 79.6921 224.38 79.6514 223.872C78.5383 212.726 76.8068 201.651 74.4649 190.698C73.7131 187.216 72.9661 183.672 72.0221 180.24C76.6848 178.705 81.2841 176.979 85.6759 174.779Z" fill="#ADABAF"/>
<path d="M96.5179 79.7383C97.3616 82.2351 98.5433 82.4564 100.903 83.6251C103.922 85.1075 106.955 86.5641 109.999 87.995C111.856 88.8781 113.653 89.8512 115.611 90.4929C117.414 91.0841 118.02 90.3237 119.188 89.0683C119.07 89.7027 118.699 92.2775 118.282 92.5662L118.13 92.5341C117.701 92.4475 117.547 92.3786 117.129 92.5096C116.074 93.3561 114.236 97.1738 113.683 98.5493C109.739 101.117 108.065 102.506 105.033 106.194L103.72 107.958C102.567 109.785 101.369 111.674 100.361 113.584C99.5788 115.068 98.9016 116.649 98.1579 118.165C97.6333 117.344 97.094 116.369 96.6306 115.506C93.8886 110.399 90.4717 105.624 87.551 100.651C87.1326 100.019 85.4355 97.7389 85.366 97.1806C86.8276 94.6095 88.3516 90.9121 88.6935 87.9604C90.1 86.6492 93.3011 82.2995 94.6442 80.555C95.3014 80.2918 95.8852 80.0651 96.5179 79.7383Z" fill="#FEFEFE"/>
<path d="M87.551 100.651C88.7688 100.844 92.5369 102.913 93.9902 103.557C96.1876 104.529 98.6474 105.712 100.881 106.678C101.424 106.913 103.277 107.854 103.72 107.958C102.567 109.785 101.369 111.674 100.361 113.584C99.5788 115.068 98.9016 116.649 98.1579 118.165C97.6333 117.344 97.094 116.369 96.6306 115.506C93.8886 110.399 90.4717 105.624 87.551 100.651Z" fill="#FEFEFE"/>
<path d="M87.551 100.651C87.1326 100.019 85.4355 97.7389 85.366 97.1806C89.2764 98.6837 93.035 100.629 96.8381 102.367C99.6847 103.668 102.25 104.698 105.033 106.194L103.72 107.958C103.277 107.854 101.424 106.913 100.881 106.678C98.6474 105.712 96.1876 104.529 93.9902 103.557C92.5369 102.913 88.7688 100.844 87.551 100.651Z" fill="#384BA3"/>
<path d="M74.8911 17.5526C79.9697 23.8456 76.6301 31.0005 76.0064 38.0895L75.9933 38.2542C77.0061 40.327 77.8228 41.3025 79.2174 43.1175C77.7783 44.481 77.3897 44.6514 75.6297 45.6123C73.5748 50.153 72.1165 59.5966 65.1312 57.1306C62.7819 56.3013 61.7378 55.1853 60.6126 53.0114C58.8927 49.4176 58.9761 47.4483 57.9747 43.9327C56.9768 43.7415 56.3312 43.5731 55.4296 43.0236C53.9455 42.1109 52.9056 40.6255 52.5562 38.9196C52.0707 36.6321 53.0143 33.3352 55.7169 32.9415C57.562 32.6731 58.243 33.857 59.5667 34.8318C60.3159 34.3777 61.6244 33.1749 62.3299 32.5715C67.4712 28.1764 71.0969 23.1036 74.8911 17.5526Z" fill="#FEFEFE"/>
<path d="M56.7048 34.8686C57.3734 34.9482 57.9882 35.1651 58.2171 35.848C57.8318 36.9569 56.8794 36.2894 56.212 36.9306C56.0078 37.3579 55.9917 38.1971 56.1971 38.588C56.9266 39.9765 58.2101 38.4948 58.6967 40.377C56.1754 42.6665 52.4504 36.8367 56.7048 34.8686Z" fill="#2D2658"/>
<path d="M72.5923 28.4754C73.1606 28.4777 73.7984 28.51 74.32 28.7476C74.9219 29.0221 76.0183 29.9765 75.5117 30.6871C74.717 30.9785 74.086 30.0704 73.1705 29.7939C71.9239 29.8737 70.3395 31.0785 69.4882 30.1507C69.7576 29.135 71.7071 28.6027 72.5923 28.4754Z" fill="#2D2658"/>
<path d="M72.2287 34.2178C72.5602 34.231 72.9491 34.1757 73.178 34.4355C73.8452 35.1931 73.647 36.72 73.0507 37.4074C71.1613 37.3094 71.3412 35.2947 72.2287 34.2178Z" fill="#2D2658"/>
<path d="M130.609 68.144C133.445 68.9105 130.343 74.1908 129.51 75.6487C129.027 76.4942 127.086 78.7797 127.905 79.6388C128.764 79.6946 129.283 78.8764 129.707 78.2503C131.254 75.9651 132.922 73.9211 134.404 71.5636C136.517 76.0932 133.77 79.0461 131.615 82.7796C130.581 84.5719 129.698 86.2255 128.831 88.1054C127.692 90.5209 126.752 92.718 125.733 95.1916C123.493 94.1729 121.603 93.5988 119.254 92.9905C120.881 89.4115 120.144 88.5375 120.972 85.0088C121.891 81.0975 124.603 77.218 126.738 73.8554C127.906 72.0167 129.247 69.8484 130.609 68.144Z" fill="#FEFEFE"/>
<path d="M123.736 39.5777C125.204 39.4459 143.738 47.7567 145.023 49.2042C144.013 51.9167 141.712 54.8618 140.206 57.3867C137.975 61.1301 135.346 64.9181 133.201 68.6723C132.756 67.3637 132.42 67.2293 131.234 66.6288C134.259 61.7331 137.324 56.8619 140.427 52.0155L141.117 50.6745C139.994 50.0363 136.648 48.7009 135.323 48.1153L122.635 42.4748C122.164 43.1347 121.701 43.8885 121.276 44.585C118.305 49.4552 115.202 54.2764 112.272 59.1671C111.532 57.9807 111.451 57.7913 110.14 57.2915C113.388 53.0148 116.436 47.2993 119.452 42.7827C120.808 40.7535 121.339 40.0502 123.736 39.5777Z" fill="#9993A3"/>
<path d="M53.2057 43.1516C54.6665 44.1673 55.3103 44.6959 56.9561 45.3134C57.5752 48.2365 57.9745 49.8997 58.9221 52.7493C57.1808 56.3596 55.9663 58.4504 53.8584 61.8212C51.716 61.1194 49.6882 60.6553 47.4948 60.154C45.5293 59.7709 41.8625 59.0587 40.2682 58.02C40.5952 57.9036 40.9194 57.7796 41.2406 57.6481C48.2465 54.8052 50.4932 49.5449 53.2057 43.1516Z" fill="#FEFEFE"/>
<path d="M109.604 58.7708C110.455 58.7049 111.26 59.6785 111.004 60.2699C110.014 62.5632 106.392 63.4256 104.451 64.833C103.732 65.354 103.889 65.4224 103.675 66.2654C102.777 69.386 101.262 72.7172 97.7984 73.5572C97.5138 73.6693 95.4549 73.8623 95.393 74.0428C94.7102 76.0353 97.4893 75.102 98.1835 74.8679C96.7562 77.1728 97.0223 77.8455 94.8732 79.584C93.3509 77.5508 91.7395 75.5856 90.0439 73.6941C91.6996 72.0245 93.3186 70.4795 94.7918 68.642C95.7359 67.4642 97.4694 64.5398 98.3869 63.7304C100.416 61.9415 107.107 59.3514 109.604 58.7708Z" fill="#FEFEFE"/>
<path d="M109.61 63.5749L109.673 63.6074C108.138 65.5853 106.854 67.9215 105.439 70.0403C104.088 72.1412 102.658 74.186 101.408 76.3485C100.658 77.6458 101.249 78.2599 102.482 78.8764C104.953 80.111 107.587 81.3954 110.137 82.4508C112.551 83.4506 115.5 85.1204 117.988 85.7515C118.838 85.105 119.039 84.8742 119.735 84.0847C119.57 84.9022 119.441 85.9389 119.314 86.7793C118.714 87.345 118.189 88.0902 117.684 88.7509C117.354 88.9872 116.978 89.2112 116.631 89.4287C114.205 88.5403 111.151 86.8306 108.726 85.7007C105.603 84.2125 102.614 82.8304 99.5042 81.272C96.1154 80.0921 98.6926 75.5217 100.483 74.092C103.446 71.7258 103.944 69.0345 105.749 65.9305C106.059 65.3962 108.874 63.9814 109.61 63.5749Z" fill="url(#paint0_linear_78_610)"/>
<path d="M81.2843 79.4383L81.6166 79.4883C83.5474 80.9939 86.3683 85.8371 87.4655 88.1046C86.6468 91.1032 85.9465 93.1155 84.4253 95.8482L83.0982 93.8756C80.7721 90.2787 77.407 85.8795 74.7383 82.5814C77.2892 81.5523 78.8587 80.7414 81.2843 79.4383Z" fill="#FEFEFE"/>
<path d="M38.4435 58.5317C39.0659 58.511 38.6909 58.4597 39.129 58.7431C46.6775 63.6279 55.7204 59.9914 60.7119 69.2216L59.6084 68.5824C53.287 65.3787 46.9906 64.7436 40.4814 62.2776C38.7096 61.6061 37.4089 60.6129 36.6956 58.8037C37.2651 58.7302 37.8726 58.6221 38.4435 58.5317Z" fill="#FEFEFE"/>
<path d="M34.7536 58.7756C35.1966 58.8299 35.3368 59.6247 35.6237 60.0843C36.7754 61.9303 37.9143 62.6566 39.7961 63.4827C45.8138 66.1245 58.0733 67.3074 62.4532 72.3559C61.9683 72.1836 61.3085 71.8281 60.8319 71.5899C58.4301 70.5464 55.8316 69.3893 53.2936 68.7946C49.4465 67.9511 46.0875 67.3503 42.1884 66.474C38.9201 65.7396 33.8078 63.758 32.8357 60.0785C32.5549 59.0168 33.9839 58.8976 34.7536 58.7756Z" fill="#FEFEFE"/>
<path d="M123.102 43.9489C124.862 44.6411 127.015 45.679 128.771 46.4652C132.394 48.1218 136.059 49.6883 139.76 51.1636C139.162 51.967 138.584 52.9511 138.051 53.8112C137.357 53.6607 134.302 52.1314 133.506 51.7722L121.48 46.421C122.029 45.5063 122.484 44.8206 123.102 43.9489Z" fill="#FEFEFE"/>
<path d="M49.9226 46.9831C50.0355 47.523 49.2256 48.6635 48.956 49.1466C45.9631 54.5098 40.232 57.8099 34.0705 57.4758C32.4235 57.3864 31.0839 57.0033 29.4879 56.5081C28.9982 56.3427 28.5408 56.1222 28.0693 55.9096C28.5138 55.9737 28.9603 56.0197 29.4083 56.048C37.1883 56.5071 44.3549 51.9594 49.9226 46.9831Z" fill="#FEFEFE"/>
<path d="M84.5213 77.0465C85.5874 77.5117 89.2128 83.2703 89.9072 84.5039C89.3743 85.2765 88.8914 85.8977 88.3051 86.6331C86.8981 84.2398 84.6138 80.3247 82.6372 78.4698C83.2962 77.9685 83.8946 77.6374 84.5213 77.0465Z" fill="#FEFEFE"/>
<path d="M117.39 94.1963C120.195 94.9012 122.434 95.4504 125.088 96.7C124.85 97.3033 124.559 97.8286 124.259 98.4021C121.773 97.368 119.047 96.5682 116.467 95.8055L117.39 94.1963Z" fill="#FEFEFE"/>
<path d="M115.852 97.2427C118.877 97.9791 120.667 98.4991 123.557 99.6284C123.353 100.267 123.113 100.778 122.841 101.385C122.523 101.447 116.413 99.12 115.196 98.7776L115.852 97.2427Z" fill="#FEFEFE"/>
<path d="M85.2377 76.546C85.8886 76.2212 86.1931 75.9507 86.7609 75.5073C88.2013 77.3319 90.3843 80.2951 91.6564 82.2518C91.3696 82.6544 90.9807 83.1655 90.7224 83.5716C88.8563 81.0384 87.8035 78.3458 85.2377 76.546Z" fill="#FEFEFE"/>
<path d="M88.6438 74.014C89.8213 75.1431 92.3483 78.5908 93.3312 79.9635L92.2358 81.3863C91.4269 79.8433 88.647 75.8575 87.2064 75.0461L88.6438 74.014Z" fill="#FEFEFE"/>
<path d="M145.711 50.3649L145.838 50.4891C145.964 51.5412 143.028 55.7197 142.35 56.7975L136.444 66.148C135.194 68.1135 133.903 69.9974 132.759 72.0321L132.705 72.0195C132.407 70.6916 144.252 53.364 145.711 50.3649Z" fill="#9993A3"/>
<path d="M181.013 43.9024C182.246 44.3345 183.803 45.1262 185.028 45.7058L191.498 48.786L210.29 57.8104L232.825 68.6837C236.803 70.6118 241.679 72.7824 245.44 74.9903L245.443 130.782L245.315 150.936C245.307 155.053 245.302 159.203 245.316 163.323C245.317 163.569 245.289 164.08 245.102 164.206C244.357 164.708 241.852 165.827 241.06 165.793L240.879 165.696C239.555 166.1 237.593 166.826 236.496 167.678C235.934 167.724 235.893 167.711 235.417 167.984C235.38 168.04 235.246 168.232 235.229 168.286C232.127 169.712 229.079 170.879 225.946 172.193C223.157 173.363 220.378 174.839 217.511 175.862C216.544 176.439 214.123 177.45 213.031 177.828C211.874 177.53 209.851 176.538 208.549 176.059L208.548 173.65C206.675 173.304 198.006 168.883 195.642 167.9C193.663 167.076 189.666 165.378 187.786 164.501C180.739 161.213 173.67 157.954 166.623 154.668C162.728 152.851 158.286 150.901 154.542 148.842L153.478 149.377C152.282 148.855 148.907 147.185 147.927 146.433L147.897 97.719C147.902 84.9211 147.769 71.902 147.946 59.1249C149.511 57.5564 155.981 55.0325 158.245 54.0234L171.197 48.217C173.112 47.3814 175.021 46.5326 176.924 45.6712C178.108 45.1287 179.843 44.2469 181.013 43.9024Z" fill="#2D2658"/>
<path d="M156.555 141.86C159.999 143.695 164.113 145.536 167.665 147.242L184.373 155.34C188.318 157.232 192.278 159.108 196.22 161.003C200.32 162.975 204.412 165.205 208.552 167.077L208.548 173.65C206.675 173.304 198.006 168.883 195.642 167.9C193.663 167.076 189.666 165.378 187.786 164.501C180.739 161.213 173.67 157.954 166.623 154.668C162.728 152.851 158.286 150.901 154.542 148.842C155.133 148.483 155.976 147.999 156.516 147.613C156.528 145.721 156.509 143.745 156.555 141.86Z" fill="#384BA3"/>
<path d="M217.534 165.827C219.383 164.876 221.618 163.891 223.525 162.966C228.275 160.632 233.063 158.378 237.889 156.206C237.93 158.676 237.811 161.193 237.848 163.689C238.571 164.339 240.008 165.162 240.879 165.696C239.555 166.1 237.593 166.826 236.496 167.678C235.934 167.724 235.893 167.711 235.417 167.984C235.38 168.04 235.246 168.232 235.229 168.286C232.127 169.712 229.079 170.879 225.946 172.193C223.157 173.363 220.378 174.839 217.511 175.862C217.619 172.703 217.531 169.027 217.534 165.827Z" fill="#384BA3"/>
<path d="M153.067 67.1164L208.546 93.966L208.581 136.043C208.594 145.856 208.711 155.917 208.533 165.717C204.846 164.009 200.844 161.671 197.054 159.879C190.426 156.746 183.673 153.577 177.093 150.354C171.552 147.607 165.989 144.904 160.404 142.247C157.95 141.051 155.561 139.756 153.076 138.623L153.067 67.1164Z" fill="#FEFEFE"/>
<path d="M155.423 70.972C156.548 71.2795 159.976 72.9786 161.211 73.5726L172.017 78.792L206.134 95.1754L206.087 141.365C206.089 143.621 206.33 160.668 205.946 161.472C204.815 161.661 203.641 160.738 202.597 160.204L195.163 156.459L166.905 142.713C164.572 141.569 162.231 140.442 159.881 139.333C158.49 138.678 156.34 137.747 155.072 136.96L155.235 100.758L155.225 81.9483C155.223 80.183 155.065 71.7354 155.423 70.972Z" fill="#2D2658"/>
<path d="M156.61 94.4996C157.677 94.9492 159.206 95.7439 160.285 96.255L168.067 99.9295L194.221 112.313C197.688 113.944 201.301 115.796 204.789 117.322L204.807 138.226C201.056 136.609 196.076 133.998 192.268 132.148L169.621 121.202L161.445 117.218C160.161 116.594 157.815 115.385 156.534 114.97C156.766 108.266 156.517 101.257 156.61 94.4996Z" fill="#FEFEFE"/>
<path d="M179.008 113.036C179.112 113.032 179.216 113.03 179.321 113.03C181.458 113.044 181.987 117.238 180.34 118.723C178.7 118.755 178.198 117.078 178.131 115.693C178.073 114.491 178.205 113.922 179.008 113.036Z" fill="#2D2658"/>
<path d="M179.479 114.471C180.326 114.894 180.193 116.368 179.956 117.132C179.109 116.792 179.32 115.176 179.479 114.471Z" fill="#FEFEFE"/>
<path d="M156.518 72.8584C158.548 73.891 160.663 74.804 162.723 75.7871C167.063 77.8968 171.414 79.983 175.777 82.046L204.809 96.0313L204.792 115.962L172.808 100.717C167.399 98.1524 161.95 95.7406 156.608 93.0465C156.395 86.6649 156.498 79.2994 156.518 72.8584Z" fill="#FEFEFE"/>
<path d="M179.227 90.7828C181.557 91.0255 182.002 95.7201 180.149 97.0566C177.713 96.4048 177.366 92.0101 179.227 90.7828Z" fill="#2D2658"/>
<path d="M179.48 92.2856C180.073 92.9801 180.215 94.4481 180.03 95.3176C179.07 94.8436 179.268 93.1486 179.48 92.2856Z" fill="#FEFEFE"/>
<path d="M156.518 116.309C157.55 116.697 159.712 117.84 160.831 118.379C163.984 119.885 167.128 121.411 170.261 122.958L192.428 133.673C196.471 135.628 200.695 137.781 204.771 139.62L204.807 159.792C202.255 158.673 199.56 157.226 197.055 155.969L186.006 150.51L156.458 136.127C156.393 129.701 156.412 122.724 156.518 116.309Z" fill="#FEFEFE"/>
<path d="M179.268 134.233C181.625 134.618 182.047 138.777 180.14 140.314C177.725 139.823 177.404 135.727 179.268 134.233Z" fill="#2D2658"/>
<path d="M179.408 135.805C180.381 136.342 180.263 137.786 179.97 138.71C179.11 138.162 179.284 136.675 179.408 135.805Z" fill="#FEFEFE"/>
<path d="M243.938 76.7808L244.122 76.9654L243.976 163.258C243.234 163.651 242.653 163.927 241.882 164.263C241.871 162.593 242.195 154.173 241.485 153.387C240.285 153.192 223.805 161.663 221.356 162.494C220.597 162.752 216.971 164.571 216.218 165.068L216.216 167.019L216.189 175.039C215.336 175.459 214.743 175.72 213.857 176.062L213.856 90.9906C223.718 86.1119 234.212 81.8851 243.938 76.7808Z" fill="#FEFEFE"/>
<path d="M180.924 45.3419C181.996 45.4979 190.818 49.9858 192.512 50.7906L220.543 64.1878C228.269 67.9402 235.845 71.7707 243.672 75.377C242.257 76.2045 240.025 77.1975 238.492 77.9268L230.656 81.6629C225.144 84.2398 219.632 86.8775 214.113 89.4458C213.53 89.7173 213.042 89.9951 212.43 89.758C196.098 82.1427 179.903 73.9418 163.584 66.2886C158.804 64.0468 153.844 61.3821 149.061 59.3507C151.85 58.3579 155.297 56.6836 158.057 55.4909L180.924 45.3419Z" fill="#FEFEFE"/>
<path d="M149.295 60.7727C150.077 61.1025 151.444 61.8558 152.239 62.2607C154.163 63.2423 156.094 64.2102 158.032 65.1641C163.604 67.9006 169.398 70.5921 175.023 73.2902L201.324 85.998C204.915 87.7321 209.083 89.4946 212.551 91.3184L212.581 176.318L209.859 175.143L209.838 96.971L209.825 93.1576C200.295 88.2819 190.463 83.7857 180.838 79.1029L164.396 71.1591C162.9 70.4328 152.824 65.3348 151.951 65.5012C151.49 66.0788 151.712 73.6178 151.717 74.9873L151.763 92.6854L151.824 147.095C150.987 146.671 150.101 146.157 149.275 145.698L149.295 60.7727Z" fill="#FEFEFE"/>
<path d="M153.117 140.122C153.816 140.431 154.532 140.774 155.229 141.097C155.244 142.866 155.271 144.685 155.233 146.456C155.222 146.998 155.156 146.994 154.85 147.259C154.426 147.485 153.674 147.738 153.201 147.914C153.009 146.279 153.115 141.949 153.117 140.122Z" fill="#FEFEFE"/>
<path d="M240.513 154.973C240.741 155.259 240.661 162.487 240.614 163.471C240.259 163.52 240.156 163.385 239.763 163.201L239.32 162.933C238.948 162.202 239.148 156.81 239.15 155.585L240.513 154.973Z" fill="#FEFEFE"/>
<path d="M121.764 115.321C121.949 114.665 122.154 113.564 122.308 112.866C123.128 113.412 124.888 114.143 125.873 114.591L132.007 117.379C137.192 119.781 142.363 122.214 147.518 124.678C147.53 125.405 147.659 126.383 147.167 126.906C146.301 127.056 125.259 116.342 121.764 115.321Z" fill="#384BA3"/>
<path d="M256.063 153.94C256.386 154.135 256.709 154.444 257 154.697C255.461 156.26 251.971 159.119 250.199 160.652C249.78 160.536 249.528 160.16 249.229 159.821C251.442 157.961 253.806 155.689 256.063 153.94Z" fill="#2D2658"/>
<path d="M236.496 167.678C238.303 168.477 244.148 170.662 245.239 171.657L245.26 171.792C244.088 171.888 237.226 168.797 235.229 168.286C235.246 168.232 235.38 168.04 235.417 167.984C235.893 167.711 235.934 167.724 236.496 167.678Z" fill="#384BA3"/>
<defs>
<linearGradient id="paint0_linear_78_610" x1="170.124" y1="10.4772" x2="137.822" y2="210.653" gradientUnits="userSpaceOnUse">
<stop stop-color="#8D869B"/>
<stop offset="1" stop-color="#A29FAE"/>
</linearGradient>
</defs>
</svg>
