<svg width="22" height="17" viewBox="0 0 22 17" fill="none" xmlns="http://www.w3.org/2000/svg">
<path d="M9.75367 0.453003C9.45898 0.162945 9.05935 0 8.64265 0C8.22596 0 7.82633 0.162945 7.53164 0.453003L0.4601 7.41546C0.165499 7.70561 0 8.09908 0 8.50934C0 8.91961 0.165499 9.31308 0.4601 9.60322L7.53164 16.5657C7.82802 16.8475 8.22497 17.0035 8.637 16.9999C9.04903 16.9964 9.44317 16.8337 9.73453 16.5468C10.0259 16.26 10.1912 15.8719 10.1947 15.4662C10.1983 15.0606 10.0399 14.6697 9.75367 14.3779L5.49975 10.0566H20.4285C20.8453 10.0566 21.245 9.89354 21.5397 9.60338C21.8344 9.31323 22 8.91969 22 8.50934C22 8.09899 21.8344 7.70545 21.5397 7.4153C21.245 7.12514 20.8453 6.96213 20.4285 6.96213H5.49975L9.75367 2.64076C10.0483 2.35062 10.2138 1.95715 10.2138 1.54688C10.2138 1.13662 10.0483 0.743148 9.75367 0.453003Z" fill="#384BA3"/>
</svg>
