<svg width="24" height="21" viewBox="0 0 24 21" fill="none" xmlns="http://www.w3.org/2000/svg">
<path d="M8.9816 11.2869C8.9816 10.4945 9.2891 9.73454 9.83646 9.17424C10.3838 8.61394 11.1262 8.29916 11.9003 8.29916C12.6744 8.29916 13.4168 8.61394 13.9641 9.17424C14.5115 9.73454 14.819 10.4945 14.819 11.2869C14.819 12.0792 14.5115 12.8392 13.9641 13.3995C13.4168 13.9598 12.6744 14.2746 11.9003 14.2746C11.1262 14.2746 10.3838 13.9598 9.83646 13.3995C9.2891 12.8392 8.9816 12.0792 8.9816 11.2869Z" fill="#A3A3A3"/>
<path fill-rule="evenodd" clip-rule="evenodd" d="M6.02917 4.17216C6.02883 3.62416 6.13402 3.08147 6.33873 2.57513C6.54343 2.06878 6.84364 1.60871 7.22218 1.22122C7.60072 0.833728 8.05017 0.526423 8.54483 0.316876C9.03948 0.107329 9.56963 -0.000348305 10.105 8.46391e-07H13.6956C14.231 -0.000348305 14.7611 0.107329 15.2558 0.316876C15.7504 0.526423 16.1999 0.833728 16.5784 1.22122C16.9569 1.60871 17.2572 2.06878 17.4619 2.57513C17.6666 3.08147 17.7718 3.62416 17.7714 4.17216C17.7716 4.18163 17.7752 4.19072 17.7813 4.19777C17.7875 4.20483 17.796 4.2094 17.8051 4.21066L20.6979 4.44968C21.9938 4.55856 23.0588 5.53853 23.3014 6.84648C23.9173 10.1828 23.963 13.6032 23.4363 16.9555L23.3105 17.7575C23.195 18.4924 22.8422 19.1663 22.3083 19.6716C21.7745 20.1769 21.0905 20.4844 20.3658 20.5447L17.8454 20.7532C13.8885 21.0823 9.91209 21.0823 5.95523 20.7532L3.43477 20.5447C2.70989 20.4843 2.02578 20.1767 1.49192 19.6711C0.958057 19.1656 0.605307 18.4913 0.490125 17.7562L0.364297 16.9555C-0.163664 13.6027 -0.116965 10.1834 0.499205 6.84648C0.617024 6.21045 0.935564 5.63161 1.4059 5.19885C1.87623 4.7661 2.47235 4.50336 3.10269 4.45101L5.99544 4.21066C6.00462 4.2094 6.01306 4.20483 6.01924 4.19777C6.02542 4.19072 6.02894 4.18163 6.02917 4.17216ZM11.9003 6.30736C10.6101 6.30736 9.37284 6.83199 8.46057 7.76582C7.5483 8.69966 7.0358 9.96622 7.0358 11.2869C7.0358 12.6075 7.5483 13.8741 8.46057 14.8079C9.37284 15.7417 10.6101 16.2664 11.9003 16.2664C13.1904 16.2664 14.4277 15.7417 15.34 14.8079C16.2523 13.8741 16.7648 12.6075 16.7648 11.2869C16.7648 9.96622 16.2523 8.69966 15.34 7.76582C14.4277 6.83199 13.1904 6.30736 11.9003 6.30736Z" fill="#A3A3A3"/>
</svg>
