<svg width="14" height="13" viewBox="0 0 14 13" fill="none" xmlns="http://www.w3.org/2000/svg">
<path d="M2.00643 2.73952L3.37703 10.4811C3.43972 10.8355 3.63492 11.1576 3.92786 11.39C4.2208 11.6223 4.59245 11.7499 4.97659 11.75H7.14827M11.4929 2.73952L10.123 10.4811C10.0603 10.8355 9.86508 11.1576 9.57214 11.39C9.2792 11.6223 8.90755 11.7499 8.52341 11.75H6.35173M5.46697 5.7135V8.77603M8.03303 5.7135V8.77603M0.75 2.73952H12.75M8.5513 2.73952V1.65984C8.5513 1.41854 8.44879 1.18712 8.26632 1.01649C8.08385 0.845858 7.83637 0.75 7.57832 0.75H5.92168C5.66363 0.75 5.41615 0.845858 5.23368 1.01649C5.05121 1.18712 4.9487 1.41854 4.9487 1.65984V2.73952H8.5513Z" stroke="#DA0000" stroke-width="1.5" stroke-linecap="round" stroke-linejoin="round"/>
</svg>
