<svg width="23" height="23" viewBox="0 0 23 23" fill="none" xmlns="http://www.w3.org/2000/svg">
<path d="M7.33125 16.3875L13.1387 14.72C13.5221 14.605 13.8529 14.4083 14.1312 14.13C14.4095 13.8517 14.6058 13.5213 14.72 13.1387L16.3875 7.33125C16.445 7.12041 16.3925 6.93335 16.2299 6.77005C16.0674 6.60675 15.8803 6.55423 15.6687 6.6125L9.86124 8.28C9.47791 8.395 9.14748 8.59165 8.86995 8.86995C8.59241 9.14825 8.39576 9.47868 8.28 9.86125L6.6125 15.6687C6.555 15.8796 6.6079 16.0666 6.7712 16.2299C6.9345 16.3932 7.12118 16.4458 7.33125 16.3875ZM11.5 13.225C11.0208 13.225 10.6137 13.0575 10.2787 12.7224C9.94366 12.3874 9.77576 11.9799 9.77499 11.5C9.77423 11.0201 9.94213 10.613 10.2787 10.2787C10.6153 9.94443 11.0224 9.77653 11.5 9.775C11.9776 9.77346 12.3851 9.94136 12.7224 10.2787C13.0598 10.616 13.2273 11.0231 13.225 11.5C13.2227 11.9769 13.0552 12.3843 12.7224 12.7224C12.3897 13.0605 11.9822 13.2281 11.5 13.225ZM11.5 23C9.90916 23 8.41416 22.6979 7.015 22.0938C5.61583 21.4897 4.39875 20.6705 3.36375 19.6362C2.32875 18.602 1.50957 17.3849 0.906201 15.985C0.302835 14.5851 0.000768122 13.0901 1.45569e-06 11.5C-0.00076521 9.90993 0.301301 8.41493 0.906201 7.015C1.5111 5.61507 2.33028 4.39798 3.36375 3.36375C4.39722 2.32952 5.6143 1.51033 7.015 0.9062C8.4157 0.302067 9.9107 0 11.5 0C13.0893 0 14.5843 0.302067 15.985 0.9062C17.3857 1.51033 18.6028 2.32952 19.6362 3.36375C20.6697 4.39798 21.4893 5.61507 22.0949 7.015C22.7006 8.41493 23.0023 9.90993 23 11.5C22.9977 13.0901 22.6956 14.5851 22.0938 15.985C21.492 17.3849 20.6728 18.602 19.6362 19.6362C18.5997 20.6705 17.3826 21.49 15.985 22.0949C14.5874 22.6998 13.0924 23.0015 11.5 23Z" fill="#A3A3A3"/>
</svg>
