<svg width="19" height="20" viewBox="0 0 19 20" fill="none" xmlns="http://www.w3.org/2000/svg">
<path d="M0 17.36V7.28C0 6.92533 0.0807623 6.58933 0.242287 6.272C0.403812 5.95467 0.626383 5.69333 0.91 5.488L7.735 0.448C8.13312 0.149333 8.58812 0 9.1 0C9.61187 0 10.0669 0.149333 10.465 0.448L17.29 5.488C17.5744 5.69333 17.7973 5.95467 17.9588 6.272C18.1204 6.58933 18.2008 6.92533 18.2 7.28V17.36C18.2 17.976 17.977 18.5035 17.5311 18.9426C17.0852 19.3816 16.5499 19.6007 15.925 19.6H12.5125C12.1902 19.6 11.9202 19.4925 11.7026 19.2774C11.485 19.0624 11.3758 18.7966 11.375 18.48V12.88C11.375 12.5627 11.2658 12.2969 11.0474 12.0826C10.829 11.8683 10.559 11.7607 10.2375 11.76H7.9625C7.64021 11.76 7.37024 11.8675 7.1526 12.0826C6.93496 12.2976 6.82576 12.5634 6.825 12.88V18.48C6.825 18.7973 6.7158 19.0635 6.4974 19.2786C6.279 19.4936 6.00903 19.6007 5.6875 19.6H2.275C1.64937 19.6 1.11399 19.3808 0.66885 18.9426C0.223708 18.5043 0.000758333 17.9767 0 17.36Z" fill="#384BA3"/>
</svg>
