<svg width="12" height="16" viewBox="0 0 12 16" fill="none" xmlns="http://www.w3.org/2000/svg">
<path d="M6 0C6.49246 0 6.98058 0.0967011 7.43555 0.285156C7.8904 0.473608 8.30323 0.750492 8.65137 1.09863C8.99951 1.44677 9.27639 1.8596 9.46484 2.31445C9.6533 2.76942 9.75 3.25754 9.75 3.75V5.25H10.5C10.8978 5.25 11.2792 5.40815 11.5605 5.68945C11.8419 5.97076 12 6.35218 12 6.75V14.25C12 14.6478 11.8419 15.0292 11.5605 15.3105C11.2792 15.5919 10.8978 15.75 10.5 15.75H1.5C1.10218 15.75 0.720758 15.5919 0.439453 15.3105C0.158149 15.0292 0 14.6478 0 14.25V6.75C0 5.9175 0.6675 5.25 1.5 5.25H2.25V3.75C2.25 2.75544 2.64537 1.80189 3.34863 1.09863C4.05189 0.395371 5.00544 0 6 0ZM1.5 14.25H10.5V6.75H1.5V14.25ZM6 9C6.39782 9 6.77924 9.15815 7.06055 9.43945C7.34185 9.72076 7.5 10.1022 7.5 10.5C7.5 10.8978 7.34185 11.2792 7.06055 11.5605C6.77924 11.8419 6.39782 12 6 12C5.60218 12 5.22076 11.8419 4.93945 11.5605C4.65815 11.2792 4.5 10.8978 4.5 10.5C4.5 9.6675 5.1675 9 6 9ZM6 1.5C5.40326 1.5 4.83114 1.73722 4.40918 2.15918C3.98722 2.58114 3.75 3.15326 3.75 3.75V5.25H8.25V3.75C8.25 3.15326 8.01278 2.58114 7.59082 2.15918C7.16886 1.73722 6.59674 1.5 6 1.5Z" fill="#384BA3"/>
<path d="M6 0C6.49246 0 6.98058 0.0967011 7.43555 0.285156C7.8904 0.473608 8.30323 0.750492 8.65137 1.09863C8.99951 1.44677 9.27639 1.8596 9.46484 2.31445C9.6533 2.76942 9.75 3.25754 9.75 3.75V5.25H10.5C10.8978 5.25 11.2792 5.40815 11.5605 5.68945C11.8419 5.97076 12 6.35218 12 6.75V14.25C12 14.6478 11.8419 15.0292 11.5605 15.3105C11.2792 15.5919 10.8978 15.75 10.5 15.75H1.5C1.10218 15.75 0.720758 15.5919 0.439453 15.3105C0.158149 15.0292 0 14.6478 0 14.25V6.75C0 5.9175 0.6675 5.25 1.5 5.25H2.25V3.75C2.25 2.75544 2.64537 1.80189 3.34863 1.09863C4.05189 0.395371 5.00544 0 6 0ZM1.5 14.25H10.5V6.75H1.5V14.25ZM6 9C6.39782 9 6.77924 9.15815 7.06055 9.43945C7.34185 9.72076 7.5 10.1022 7.5 10.5C7.5 10.8978 7.34185 11.2792 7.06055 11.5605C6.77924 11.8419 6.39782 12 6 12C5.60218 12 5.22076 11.8419 4.93945 11.5605C4.65815 11.2792 4.5 10.8978 4.5 10.5C4.5 9.6675 5.1675 9 6 9ZM6 1.5C5.40326 1.5 4.83114 1.73722 4.40918 2.15918C3.98722 2.58114 3.75 3.15326 3.75 3.75V5.25H8.25V3.75C8.25 3.15326 8.01278 2.58114 7.59082 2.15918C7.16886 1.73722 6.59674 1.5 6 1.5Z" stroke="#384BA3"/>
</svg>
