<svg width="306" height="34" viewBox="0 0 306 34" fill="none" xmlns="http://www.w3.org/2000/svg">
<rect x="0.5" y="0.5" width="305" height="33" rx="7.5" fill="white"/>
<rect x="0.5" y="0.5" width="305" height="33" rx="7.5" stroke="#384BA3"/>
<path d="M30.0004 25.0004L25.9504 20.9504M25.9504 20.9504C26.6004 20.3003 27.116 19.5286 27.4678 18.6793C27.8196 17.83 28.0007 16.9197 28.0007 16.0004C28.0007 15.0811 27.8196 14.1708 27.4678 13.3214C27.116 12.4721 26.6004 11.7004 25.9504 11.0504C25.3003 10.4003 24.5286 9.88467 23.6793 9.53287C22.83 9.18107 21.9197 9 21.0004 9C20.0811 9 19.1708 9.18107 18.3214 9.53287C17.4721 9.88467 16.7004 10.4003 16.0504 11.0504C14.7375 12.3632 14 14.1437 14 16.0004C14 17.857 14.7375 19.6375 16.0504 20.9504C17.3632 22.2632 19.1437 23.0007 21.0004 23.0007C22.857 23.0007 24.6375 22.2632 25.9504 20.9504Z" stroke="#384BA3" stroke-width="2" stroke-linecap="round" stroke-linejoin="round"/>
<path d="M42.91 22.06C42.46 22.06 42.07 21.985 41.74 21.835C41.42 21.675 41.155 21.485 40.945 21.265C40.745 21.035 40.59 20.82 40.48 20.62L41.65 20.17L41.995 20.95C42.045 20.98 42.15 21.03 42.31 21.1C42.47 21.16 42.7 21.19 43 21.19C43.17 21.19 43.355 21.155 43.555 21.085C43.755 21.005 43.925 20.89 44.065 20.74C44.205 20.58 44.275 20.38 44.275 20.14C44.275 19.9 44.225 19.7 44.125 19.54C44.025 19.38 43.855 19.235 43.615 19.105C43.385 18.975 43.06 18.84 42.64 18.7C42.11 18.53 41.665 18.29 41.305 17.98C40.955 17.67 40.78 17.26 40.78 16.75C40.78 16.33 40.88 15.975 41.08 15.685C41.29 15.395 41.565 15.175 41.905 15.025C42.245 14.865 42.605 14.785 42.985 14.785C43.435 14.785 43.825 14.865 44.155 15.025C44.485 15.175 44.755 15.365 44.965 15.595C45.175 15.815 45.325 16.03 45.415 16.24L44.245 16.675L43.9 15.91C43.84 15.86 43.74 15.805 43.6 15.745C43.46 15.685 43.255 15.655 42.985 15.655C42.835 15.655 42.665 15.69 42.475 15.76C42.285 15.82 42.12 15.925 41.98 16.075C41.84 16.215 41.77 16.41 41.77 16.66C41.77 16.88 41.82 17.06 41.92 17.2C42.03 17.34 42.21 17.47 42.46 17.59C42.71 17.7 43.045 17.825 43.465 17.965C44.095 18.175 44.55 18.45 44.83 18.79C45.12 19.13 45.265 19.55 45.265 20.05C45.265 20.49 45.145 20.86 44.905 21.16C44.675 21.46 44.38 21.685 44.02 21.835C43.66 21.985 43.29 22.06 42.91 22.06ZM49.8469 22.06C49.1169 22.06 48.5119 21.905 48.0319 21.595C47.5519 21.275 47.1919 20.845 46.9519 20.305C46.7119 19.765 46.5919 19.17 46.5919 18.52C46.5919 17.83 46.7169 17.205 46.9669 16.645C47.2169 16.085 47.5769 15.64 48.0469 15.31C48.5169 14.98 49.0819 14.815 49.7419 14.815C50.1519 14.815 50.5219 14.895 50.8519 15.055C51.1919 15.205 51.4619 15.425 51.6619 15.715C51.8719 16.005 51.9769 16.36 51.9769 16.78C51.9769 17.31 51.8469 17.74 51.5869 18.07C51.3269 18.39 50.9819 18.635 50.5519 18.805C50.1319 18.965 49.6769 19.075 49.1869 19.135C48.6969 19.195 48.2169 19.225 47.7469 19.225H47.6269C47.7269 19.805 47.9569 20.285 48.3169 20.665C48.6869 21.035 49.2219 21.22 49.9219 21.22C50.2419 21.22 50.5569 21.175 50.8669 21.085C51.1769 20.985 51.4469 20.85 51.6769 20.68L51.9319 21.49C51.7419 21.63 51.5319 21.745 51.3019 21.835C51.0719 21.915 50.8319 21.97 50.5819 22C50.3419 22.04 50.0969 22.06 49.8469 22.06ZM47.5819 18.34H47.8369C48.1169 18.34 48.4369 18.33 48.7969 18.31C49.1569 18.28 49.5019 18.22 49.8319 18.13C50.1619 18.03 50.4369 17.875 50.6569 17.665C50.8769 17.445 50.9869 17.15 50.9869 16.78C50.9869 16.38 50.8469 16.095 50.5669 15.925C50.2969 15.755 50.0169 15.67 49.7269 15.67C49.2669 15.67 48.8819 15.795 48.5719 16.045C48.2619 16.285 48.0219 16.61 47.8519 17.02C47.6919 17.42 47.6019 17.86 47.5819 18.34ZM55.4623 22.06C55.0623 22.06 54.6923 21.985 54.3523 21.835C54.0123 21.675 53.7373 21.445 53.5273 21.145C53.3273 20.845 53.2273 20.49 53.2273 20.08C53.2273 19.57 53.3573 19.16 53.6173 18.85C53.8873 18.54 54.2273 18.3 54.6373 18.13C55.0573 17.96 55.4923 17.845 55.9423 17.785C56.3923 17.725 56.7973 17.69 57.1573 17.68V16.72C57.1573 16.4 57.0373 16.145 56.7973 15.955C56.5573 15.765 56.2373 15.67 55.8373 15.67C55.6873 15.67 55.5073 15.685 55.2973 15.715C55.0973 15.735 54.9323 15.785 54.8023 15.865L54.5623 16.66L53.3323 16.435C53.5023 15.875 53.8173 15.465 54.2773 15.205C54.7473 14.945 55.2373 14.815 55.7473 14.815C56.2973 14.815 56.7423 14.905 57.0823 15.085C57.4323 15.255 57.6873 15.5 57.8473 15.82C58.0173 16.14 58.1023 16.515 58.1023 16.945V20.815C58.1023 20.925 58.1273 21.025 58.1773 21.115C58.2273 21.205 58.3173 21.25 58.4473 21.25C58.4973 21.25 58.5523 21.24 58.6123 21.22C58.6723 21.2 58.7223 21.185 58.7623 21.175L58.9273 21.745C58.8273 21.855 58.7023 21.935 58.5523 21.985C58.4023 22.035 58.2523 22.06 58.1023 22.06C57.8323 22.06 57.6323 22 57.5023 21.88C57.3723 21.75 57.2823 21.59 57.2323 21.4C57.0123 21.61 56.7523 21.775 56.4523 21.895C56.1523 22.005 55.8223 22.06 55.4623 22.06ZM55.5673 21.205C55.8773 21.205 56.1773 21.135 56.4673 20.995C56.7573 20.845 56.9873 20.64 57.1573 20.38V18.52C56.9073 18.52 56.6123 18.54 56.2723 18.58C55.9423 18.62 55.6173 18.69 55.2973 18.79C54.9873 18.89 54.7273 19.04 54.5173 19.24C54.3173 19.44 54.2173 19.705 54.2173 20.035C54.2173 20.375 54.3373 20.655 54.5773 20.875C54.8173 21.095 55.1473 21.205 55.5673 21.205ZM60.0259 22L59.8909 21.34L60.7759 21.13V15.775H59.9659L59.8459 15.055L61.3159 14.8L61.7209 15.4C61.9409 15.2 62.1859 15.05 62.4559 14.95C62.7259 14.84 62.9859 14.785 63.2359 14.785C63.6759 14.785 64.0359 14.895 64.3159 15.115C64.6059 15.335 64.8309 15.555 64.9909 15.775L63.8509 16.33L63.3409 15.64C63.1609 15.64 62.9409 15.695 62.6809 15.805C62.4309 15.915 62.2059 16.095 62.0059 16.345C61.8159 16.585 61.7209 16.91 61.7209 17.32V21.04L63.8209 21.34V22H60.0259ZM68.7542 22.06C68.2142 22.06 67.7492 21.965 67.3592 21.775C66.9792 21.575 66.6642 21.31 66.4142 20.98C66.1642 20.64 65.9792 20.26 65.8592 19.84C65.7392 19.41 65.6792 18.965 65.6792 18.505C65.6792 18.025 65.7342 17.565 65.8442 17.125C65.9642 16.685 66.1492 16.29 66.3992 15.94C66.6492 15.59 66.9692 15.315 67.3592 15.115C67.7492 14.915 68.2192 14.815 68.7692 14.815C68.9892 14.815 69.1992 14.83 69.3992 14.86C69.5992 14.89 69.7842 14.935 69.9542 14.995C70.1342 15.045 70.2942 15.105 70.4342 15.175C70.5742 15.235 70.6892 15.3 70.7792 15.37L70.1192 16.405L69.2342 15.7L68.6942 15.67C68.2942 15.65 67.9592 15.725 67.6892 15.895C67.4292 16.055 67.2242 16.275 67.0742 16.555C66.9242 16.835 66.8192 17.15 66.7592 17.5C66.6992 17.84 66.6692 18.18 66.6692 18.52C66.6692 18.96 66.7342 19.39 66.8642 19.81C66.9942 20.22 67.2192 20.555 67.5392 20.815C67.8692 21.075 68.3242 21.205 68.9042 21.205C69.1042 21.205 69.2892 21.19 69.4592 21.16C69.6292 21.13 69.7942 21.085 69.9542 21.025C70.1142 20.965 70.2742 20.89 70.4342 20.8L70.6892 21.535C70.4292 21.725 70.1292 21.86 69.7892 21.94C69.4492 22.02 69.1042 22.06 68.7542 22.06ZM71.6383 22L71.5633 21.34L72.4333 21.13V12.085H71.6083L71.4733 11.35L72.9433 11.095L73.3783 11.545V15.385C73.6383 15.205 73.9233 15.065 74.2333 14.965C74.5433 14.865 74.8583 14.815 75.1783 14.815C75.6383 14.815 76.0283 14.9 76.3483 15.07C76.6683 15.23 76.9083 15.47 77.0683 15.79C77.2383 16.11 77.3233 16.51 77.3233 16.99V21.13L78.2383 21.34V22H75.5383L75.4783 21.34L76.3783 21.13V17.095C76.3783 16.615 76.2683 16.26 76.0483 16.03C75.8383 15.79 75.5233 15.67 75.1033 15.67C74.7933 15.67 74.4833 15.73 74.1733 15.85C73.8733 15.96 73.6083 16.115 73.3783 16.315V21.13L74.2183 21.325V22H71.6383ZM82.9375 22L82.8175 21.34L83.7025 21.13V15.67H82.7575L82.5475 14.98L82.6525 14.815H83.7025V13.06C83.7025 12.67 83.7625 12.33 83.8825 12.04C84.0125 11.74 84.2125 11.51 84.4825 11.35C84.7525 11.18 85.1025 11.095 85.5325 11.095C85.7325 11.095 85.9275 11.12 86.1175 11.17C86.3175 11.22 86.5075 11.29 86.6875 11.38C86.8775 11.46 87.0525 11.55 87.2125 11.65L86.4775 12.67L85.6375 11.95H85.3675C85.0575 11.95 84.8575 12.05 84.7675 12.25C84.6875 12.44 84.6475 12.65 84.6475 12.88V14.815H86.2975C86.3475 14.815 86.3725 14.845 86.3725 14.905V15.67H84.6475V21.085L86.2975 21.325V22H82.9375ZM90.4032 22.06C89.7132 22.06 89.1432 21.885 88.6932 21.535C88.2432 21.175 87.9082 20.715 87.6882 20.155C87.4782 19.595 87.3732 19.01 87.3732 18.4C87.3732 17.75 87.4882 17.155 87.7182 16.615C87.9482 16.065 88.2882 15.625 88.7382 15.295C89.1882 14.955 89.7432 14.785 90.4032 14.785C91.1132 14.785 91.6932 14.96 92.1432 15.31C92.5932 15.65 92.9232 16.095 93.1332 16.645C93.3432 17.195 93.4482 17.78 93.4482 18.4C93.4482 19.02 93.3432 19.61 93.1332 20.17C92.9232 20.73 92.5932 21.185 92.1432 21.535C91.6932 21.885 91.1132 22.06 90.4032 22.06ZM90.4032 21.19C90.9132 21.19 91.3182 21.055 91.6182 20.785C91.9182 20.505 92.1332 20.16 92.2632 19.75C92.3932 19.33 92.4582 18.905 92.4582 18.475C92.4582 18.055 92.3932 17.63 92.2632 17.2C92.1332 16.76 91.9182 16.395 91.6182 16.105C91.3182 15.805 90.9132 15.655 90.4032 15.655C90.0132 15.655 89.6882 15.755 89.4282 15.955C89.1682 16.145 88.9582 16.39 88.7982 16.69C88.6482 16.99 88.5382 17.31 88.4682 17.65C88.3982 17.98 88.3632 18.29 88.3632 18.58C88.3632 19 88.4332 19.41 88.5732 19.81C88.7132 20.21 88.9332 20.54 89.2332 20.8C89.5332 21.06 89.9232 21.19 90.4032 21.19ZM94.772 22L94.637 21.34L95.522 21.13V15.775H94.712L94.592 15.055L96.062 14.8L96.467 15.4C96.687 15.2 96.932 15.05 97.202 14.95C97.472 14.84 97.732 14.785 97.982 14.785C98.422 14.785 98.782 14.895 99.062 15.115C99.352 15.335 99.577 15.555 99.737 15.775L98.597 16.33L98.087 15.64C97.907 15.64 97.687 15.695 97.427 15.805C97.177 15.915 96.952 16.095 96.752 16.345C96.562 16.585 96.467 16.91 96.467 17.32V21.04L98.567 21.34V22H94.772ZM104.162 22L104.027 21.355L104.927 21.13V15.76L104.117 15.82L103.982 15.055L105.467 14.785L105.872 15.235V21.115L106.787 21.34V22H104.162ZM105.362 14.05C105.152 14.05 104.977 13.975 104.837 13.825C104.707 13.675 104.642 13.505 104.642 13.315C104.642 13.115 104.707 12.945 104.837 12.805C104.977 12.655 105.152 12.58 105.362 12.58C105.552 12.58 105.717 12.655 105.857 12.805C105.997 12.945 106.067 13.115 106.067 13.315C106.067 13.505 105.997 13.675 105.857 13.825C105.717 13.975 105.552 14.05 105.362 14.05ZM110.072 22.06C109.762 22.06 109.502 21.99 109.292 21.85C109.092 21.7 108.942 21.5 108.842 21.25C108.742 21 108.692 20.72 108.692 20.41L108.722 15.64H107.522L107.312 14.98L107.417 14.815H108.737L108.752 12.295L109.592 12.085L109.682 12.25L109.667 14.815H111.257C111.307 14.815 111.332 14.845 111.332 14.905V15.64H109.652V20.485C109.652 20.755 109.707 20.94 109.817 21.04C109.937 21.14 110.107 21.19 110.327 21.19C110.537 21.19 110.732 21.14 110.912 21.04C111.092 20.93 111.217 20.85 111.287 20.8L111.542 21.565C111.422 21.655 111.247 21.76 111.017 21.88C110.797 22 110.482 22.06 110.072 22.06ZM115.633 22.06C114.903 22.06 114.298 21.905 113.818 21.595C113.338 21.275 112.978 20.845 112.738 20.305C112.498 19.765 112.378 19.17 112.378 18.52C112.378 17.83 112.503 17.205 112.753 16.645C113.003 16.085 113.363 15.64 113.833 15.31C114.303 14.98 114.868 14.815 115.528 14.815C115.938 14.815 116.308 14.895 116.638 15.055C116.978 15.205 117.248 15.425 117.448 15.715C117.658 16.005 117.763 16.36 117.763 16.78C117.763 17.31 117.633 17.74 117.373 18.07C117.113 18.39 116.768 18.635 116.338 18.805C115.918 18.965 115.463 19.075 114.973 19.135C114.483 19.195 114.003 19.225 113.533 19.225H113.413C113.513 19.805 113.743 20.285 114.103 20.665C114.473 21.035 115.008 21.22 115.708 21.22C116.028 21.22 116.343 21.175 116.653 21.085C116.963 20.985 117.233 20.85 117.463 20.68L117.718 21.49C117.528 21.63 117.318 21.745 117.088 21.835C116.858 21.915 116.618 21.97 116.368 22C116.128 22.04 115.883 22.06 115.633 22.06ZM113.368 18.34H113.623C113.903 18.34 114.223 18.33 114.583 18.31C114.943 18.28 115.288 18.22 115.618 18.13C115.948 18.03 116.223 17.875 116.443 17.665C116.663 17.445 116.773 17.15 116.773 16.78C116.773 16.38 116.633 16.095 116.353 15.925C116.083 15.755 115.803 15.67 115.513 15.67C115.053 15.67 114.668 15.795 114.358 16.045C114.048 16.285 113.808 16.61 113.638 17.02C113.478 17.42 113.388 17.86 113.368 18.34ZM119.088 22L118.998 21.355L119.823 21.13V15.7L119.013 15.76L118.878 15.055L120.393 14.785L120.723 15.4C121.003 15.21 121.313 15.065 121.653 14.965C121.993 14.865 122.298 14.815 122.568 14.815C122.948 14.815 123.288 14.875 123.588 14.995C123.888 15.115 124.133 15.305 124.323 15.565C124.633 15.315 124.923 15.14 125.193 15.04C125.473 14.94 125.718 14.88 125.928 14.86C126.148 14.83 126.313 14.815 126.423 14.815C126.903 14.815 127.308 14.9 127.638 15.07C127.968 15.23 128.218 15.47 128.388 15.79C128.558 16.11 128.643 16.51 128.643 16.99V21.13L129.558 21.34V22H126.858L126.798 21.34L127.698 21.13V17.095C127.698 16.615 127.588 16.26 127.368 16.03C127.158 15.79 126.843 15.67 126.423 15.67C126.203 15.67 125.943 15.71 125.643 15.79C125.343 15.87 125.033 16.08 124.713 16.42V21.13L125.628 21.34V22H122.928L122.868 21.34L123.768 21.13V17.095C123.768 16.615 123.658 16.26 123.438 16.03C123.228 15.79 122.913 15.67 122.493 15.67C122.183 15.67 121.873 15.725 121.563 15.835C121.263 15.945 120.998 16.1 120.768 16.3V21.115L121.683 21.34V22H119.088ZM132.807 22.06C132.357 22.06 131.967 21.985 131.637 21.835C131.317 21.675 131.052 21.485 130.842 21.265C130.642 21.035 130.487 20.82 130.377 20.62L131.547 20.17L131.892 20.95C131.942 20.98 132.047 21.03 132.207 21.1C132.367 21.16 132.597 21.19 132.897 21.19C133.067 21.19 133.252 21.155 133.452 21.085C133.652 21.005 133.822 20.89 133.962 20.74C134.102 20.58 134.172 20.38 134.172 20.14C134.172 19.9 134.122 19.7 134.022 19.54C133.922 19.38 133.752 19.235 133.512 19.105C133.282 18.975 132.957 18.84 132.537 18.7C132.007 18.53 131.562 18.29 131.202 17.98C130.852 17.67 130.677 17.26 130.677 16.75C130.677 16.33 130.777 15.975 130.977 15.685C131.187 15.395 131.462 15.175 131.802 15.025C132.142 14.865 132.502 14.785 132.882 14.785C133.332 14.785 133.722 14.865 134.052 15.025C134.382 15.175 134.652 15.365 134.862 15.595C135.072 15.815 135.222 16.03 135.312 16.24L134.142 16.675L133.797 15.91C133.737 15.86 133.637 15.805 133.497 15.745C133.357 15.685 133.152 15.655 132.882 15.655C132.732 15.655 132.562 15.69 132.372 15.76C132.182 15.82 132.017 15.925 131.877 16.075C131.737 16.215 131.667 16.41 131.667 16.66C131.667 16.88 131.717 17.06 131.817 17.2C131.927 17.34 132.107 17.47 132.357 17.59C132.607 17.7 132.942 17.825 133.362 17.965C133.992 18.175 134.447 18.45 134.727 18.79C135.017 19.13 135.162 19.55 135.162 20.05C135.162 20.49 135.042 20.86 134.802 21.16C134.572 21.46 134.277 21.685 133.917 21.835C133.557 21.985 133.187 22.06 132.807 22.06Z" fill="#384BA3" fill-opacity="0.42"/>
</svg>
