<svg width="26" height="28" viewBox="0 0 26 28" fill="none" xmlns="http://www.w3.org/2000/svg">
<path fill-rule="evenodd" clip-rule="evenodd" d="M6.94724 0C5.91409 0 5.20597 1.94062e-08 4.57395 0.173209C3.91984 0.35447 3.3108 0.672614 2.78638 1.10698C2.26196 1.54136 1.83388 2.08224 1.52995 2.69451C1.23716 3.28316 1.09915 3.98512 0.896648 5.00874L0.0969538 9.04335C-0.0446734 9.75062 -0.0309904 10.4806 0.137039 11.182C0.305068 11.8834 0.623357 12.539 1.06949 13.1027V16.6776C1.06949 19.0713 1.06949 20.9674 1.26683 22.4508C1.47062 23.9771 1.89885 25.213 2.86364 26.1885C3.82843 27.1626 5.05248 27.595 6.56545 27.8007C8.03457 28 9.91256 28 12.282 28H13.7176C16.0883 28 17.9663 28 19.4354 27.8007C20.9471 27.595 22.1711 27.1626 23.1372 26.1885C24.102 25.213 24.5302 23.9771 24.734 22.4508C24.9313 20.9661 24.9313 19.0713 24.9313 16.6776V13.104C25.3774 12.54 25.6956 11.8841 25.8634 11.1825C26.0312 10.4809 26.0446 9.75073 25.9026 9.04335L25.1029 5.00874C24.9017 3.98512 24.7624 3.28316 24.4709 2.69451C24.1668 2.0821 23.7385 1.54113 23.2139 1.10676C22.6892 0.672378 22.0799 0.354307 21.4256 0.173209C20.7949 1.94062e-08 20.0867 0 19.0523 0H6.94724ZM21.0851 14.9767C21.7416 14.9779 22.3916 14.846 22.9966 14.5887V16.6047C22.9966 19.0882 22.994 20.8528 22.816 22.1916C22.6419 23.5005 22.3143 24.2558 21.7687 24.8067C21.2231 25.3576 20.475 25.6884 19.1761 25.8642C18.5176 25.9458 17.8556 25.9954 17.1924 26.0127V22.4234C17.1924 21.8504 17.1924 21.3555 17.1562 20.9518C17.1175 20.522 17.0324 20.0975 16.8028 19.6977C16.5484 19.2521 16.1823 18.882 15.7413 18.6246C15.3453 18.394 14.9248 18.3081 14.4992 18.269C14.0993 18.2326 13.6092 18.2326 13.0417 18.2326H12.9578C12.3903 18.2326 11.9015 18.2326 11.5003 18.269C11.0747 18.3081 10.6555 18.394 10.2595 18.6246C9.81806 18.8818 9.45149 19.2519 9.1967 19.6977C8.9684 20.0975 8.88327 20.522 8.84458 20.9505C8.80846 21.3568 8.80846 21.8504 8.80846 22.4221V26.0127C8.14437 25.9955 7.48149 25.9459 6.82213 25.8642C5.52585 25.6884 4.77775 25.3576 4.23215 24.8067C3.68655 24.2558 3.35893 23.5005 3.18481 22.1903C3.00552 20.8528 3.00423 19.0882 3.00423 16.6047V14.5887C4.03505 15.0276 5.18335 15.0983 6.25935 14.789C7.33535 14.4798 8.27464 13.8091 8.92197 12.8878C9.38995 13.5366 10.0036 14.0642 10.7125 14.4273C11.4214 14.7904 12.2055 14.9787 13.0004 14.9767C13.7953 14.9787 14.5794 14.7904 15.2883 14.4273C15.9973 14.0642 16.6109 13.5366 17.0789 12.8878C17.5323 13.5343 18.1328 14.0615 18.8299 14.425C19.5271 14.7885 20.3005 14.9777 21.0851 14.9767ZM10.7432 26.0439C11.2437 26.0456 11.7811 26.0465 12.3555 26.0465H13.6453C14.2197 26.0465 14.7572 26.0456 15.2576 26.0439V22.4651C15.2576 21.8387 15.2563 21.4337 15.2292 21.1276C15.2034 20.8346 15.1583 20.7278 15.1273 20.6744C15.0425 20.5263 14.9207 20.4032 14.7739 20.3176C14.721 20.2863 14.6153 20.242 14.3251 20.2147C13.8841 20.1875 13.4422 20.178 13.0004 20.186C12.38 20.186 11.9789 20.186 11.6758 20.2147C11.3843 20.2407 11.2798 20.2863 11.2269 20.3176C11.0797 20.403 10.9574 20.5261 10.8722 20.6744C10.8425 20.7265 10.7974 20.8346 10.7716 21.1276C10.7445 21.4337 10.7432 21.8387 10.7432 22.4651V26.0439ZM8.70528 1.95349H7.09041C5.85991 1.95349 5.43298 1.9626 5.0873 2.05767C4.69491 2.16634 4.32953 2.35711 4.01488 2.61759C3.70023 2.87808 3.44335 3.20246 3.26091 3.56967C3.09968 3.89395 3.0081 4.3133 2.7669 5.53228L1.99558 9.42623C1.91338 9.82689 1.91298 10.2403 1.99442 10.6411C2.07586 11.0419 2.23741 11.4217 2.46921 11.7573C2.70101 12.0929 2.99818 12.3773 3.34254 12.593C3.6869 12.8086 4.07121 12.9511 4.47198 13.0117C4.87275 13.0723 5.28154 13.0497 5.67336 12.9453C6.06519 12.8409 6.4318 12.6569 6.75078 12.4045C7.06976 12.1522 7.3344 11.8368 7.52853 11.4776C7.72265 11.1185 7.84218 10.7231 7.87979 10.3157L7.96878 9.42233L7.97394 9.36763L8.70528 1.95349ZM9.89321 9.60465L10.6516 1.95349H15.3492L16.1025 9.56168C16.1447 9.997 16.0966 10.4364 15.9612 10.8519C15.8258 11.2675 15.6062 11.6499 15.3163 11.9749C15.0263 12.3 14.6725 12.5604 14.2773 12.7397C13.8822 12.9189 13.4543 13.013 13.0211 13.016C12.5879 13.019 12.1589 12.9308 11.7613 12.7571C11.3637 12.5833 11.0064 12.3278 10.7121 12.0068C10.4178 11.6858 10.193 11.3064 10.052 10.8928C9.91099 10.4793 9.85691 10.0405 9.89321 9.60465ZM20.9135 2.05767C20.5678 1.9626 20.1409 1.95349 18.9104 1.95349H17.293L18.1223 10.3144C18.1612 10.7206 18.2815 11.1146 18.476 11.4724C18.6704 11.8302 18.935 12.1442 19.2535 12.3954C19.5721 12.6466 19.938 12.8297 20.3288 12.9336C20.7197 13.0374 21.1274 13.0599 21.5272 12.9995C21.9269 12.9392 22.3103 12.7973 22.654 12.5825C22.9977 12.3678 23.2945 12.0846 23.5264 11.7503C23.7582 11.416 23.9202 11.0376 24.0026 10.638C24.0849 10.2384 24.0858 9.82615 24.0052 9.42623L23.2352 5.53228C22.9927 4.3133 22.9011 3.89395 22.7412 3.56967C22.5586 3.20232 22.3015 2.87786 21.9867 2.61736C21.6718 2.35687 21.3061 2.16618 20.9135 2.05767Z" fill="#384BA3"/>
</svg>
